<svg width="545" height="571" viewBox="0 0 545 571" fill="none" xmlns="http://www.w3.org/2000/svg">
<path d="M337.011 163.383L338.989 163.088L338.989 163.086L337.011 163.383ZM336.354 159L338.332 158.704C338.205 157.857 337.554 157.186 336.712 157.032C335.87 156.879 335.024 157.278 334.607 158.026L336.354 159ZM221.561 364.827L219.814 363.853L219.81 363.86L221.561 364.827ZM203.997 370.031L204.924 368.259C204.913 368.253 204.903 368.248 204.893 368.243L203.997 370.031ZM203.724 369.867L202.809 371.646C202.816 371.649 202.822 371.652 202.829 371.656L203.724 369.867ZM169.581 379.838L171.307 380.849L171.307 380.848L169.581 379.838ZM179.266 415.667L180.243 413.922L180.242 413.922L179.266 415.667ZM214.558 405.642L216.304 406.617L216.305 406.615L214.558 405.642ZM245.089 350.857L243.344 349.879L243.342 349.883L245.089 350.857ZM253.843 348.391L252.863 350.135L252.873 350.141L253.843 348.391ZM263.801 345.543L262.055 344.569L262.051 344.575L263.801 345.543ZM323.113 239.15L321.369 238.172L321.366 238.176L323.113 239.15ZM197.541 382.906L196.557 384.647L196.564 384.651L197.541 382.906ZM375.695 383.289L377.442 382.316L377.44 382.314L375.695 383.289ZM341.771 372.606L340.895 370.808C340.889 370.812 340.882 370.815 340.876 370.818L341.771 372.606ZM341.497 372.771L342.393 374.559L341.497 372.771ZM324.043 367.237L322.271 368.164C322.274 368.169 322.276 368.175 322.279 368.18L324.043 367.237ZM294.606 310.919L296.379 309.992C296.038 309.341 295.368 308.929 294.633 308.919C293.898 308.909 293.217 309.303 292.859 309.945L294.606 310.919ZM278.629 339.571L276.883 338.597C276.569 339.16 276.545 339.839 276.819 340.422L278.629 339.571ZM282.131 347.022L280.321 347.873C280.336 347.905 280.353 347.937 280.37 347.969L282.131 347.022ZM292.035 350.09L292.963 351.862L292.967 351.859L292.035 350.09ZM300.734 352.774L298.957 353.692C298.961 353.698 298.964 353.705 298.967 353.711L300.734 352.774ZM330.117 408.217L328.349 409.153L328.351 409.156L330.117 408.217ZM365.189 418.954L364.249 417.189L364.248 417.19L365.189 418.954ZM358.459 406.19L359.389 407.96C359.396 407.957 359.403 407.953 359.409 407.949L358.459 406.19ZM342.92 401.423L341.148 402.351L341.152 402.358L342.92 401.423ZM347.68 385.864L346.751 384.094L346.744 384.097L347.68 385.864ZM251.053 290.046L249.273 290.957C249.609 291.614 250.28 292.033 251.018 292.045C251.756 292.058 252.441 291.663 252.8 291.018L251.053 290.046ZM267.03 261.338L268.777 262.311C269.104 261.723 269.114 261.01 268.803 260.414L267.03 261.338ZM213.682 159L215.456 158.075C215.059 157.315 214.223 156.892 213.376 157.024C212.529 157.155 211.86 157.811 211.712 158.656L213.682 159ZM212.916 163.383L210.946 163.038L210.944 163.047L212.916 163.383ZM225.118 239.424L226.898 238.512C226.893 238.504 226.889 238.495 226.884 238.486L225.118 239.424ZM338.989 163.086L338.332 158.704L334.376 159.296L335.033 163.679L338.989 163.086ZM334.607 158.026L219.814 363.853L223.308 365.801L338.101 159.974L334.607 158.026ZM219.81 363.86C216.901 369.132 210.276 371.055 204.924 368.259L203.071 371.804C210.303 375.582 219.327 373.013 223.312 365.793L219.81 363.86ZM204.893 368.243C204.961 368.277 205.012 368.314 204.971 368.286C204.93 368.259 204.797 368.168 204.619 368.079L202.829 371.656C202.76 371.621 202.709 371.585 202.75 371.613C202.791 371.64 202.924 371.731 203.102 371.82L204.893 368.243ZM204.638 368.088C191.542 361.355 175.283 366.137 167.855 378.828L171.307 380.848C177.668 369.981 191.612 365.888 202.809 371.646L204.638 368.088ZM167.856 378.827C159.903 392.393 164.672 409.798 178.29 417.413L180.242 413.922C168.582 407.402 164.486 392.484 171.307 380.849L167.856 378.827ZM178.289 417.413C191.788 424.967 208.764 420.123 216.304 406.617L212.811 404.667C206.344 416.252 191.804 420.392 180.243 413.922L178.289 417.413ZM216.305 406.615L246.836 351.83L243.342 349.883L212.811 404.668L216.305 406.615ZM246.833 351.835C248.045 349.674 250.711 348.925 252.863 350.135L254.823 346.648C250.738 344.352 245.634 345.794 243.344 349.879L246.833 351.835ZM252.873 350.141C257.392 352.646 263.044 351.044 265.552 346.511L262.051 344.575C260.619 347.163 257.408 348.081 254.813 346.642L252.873 350.141ZM265.548 346.516L324.86 240.124L321.366 238.176L262.055 344.569L265.548 346.516ZM324.857 240.129C337.988 216.731 342.939 189.603 338.989 163.088L335.033 163.677C338.852 189.318 334.064 215.55 321.369 238.172L324.857 240.129ZM200.231 397.592C197.643 402.184 191.851 403.838 187.308 401.271L185.34 404.753C191.85 408.432 200.066 406.032 203.715 399.556L200.231 397.592ZM187.308 401.271C182.724 398.68 181.068 392.879 183.635 388.326L180.15 386.361C176.479 392.875 178.872 401.098 185.34 404.753L187.308 401.271ZM183.635 388.326C186.223 383.734 192.014 382.08 196.557 384.647L198.525 381.165C192.015 377.486 183.8 379.886 180.15 386.361L183.635 388.326ZM196.564 384.651C201.184 387.236 202.803 393.028 200.231 397.592L203.715 399.556C207.38 393.054 205.06 384.821 198.518 381.161L196.564 384.651ZM274.362 303.933C271.857 303.933 269.85 301.927 269.85 299.414H265.85C265.85 304.132 269.643 307.933 274.362 307.933V303.933ZM269.85 299.414C269.85 296.9 271.857 294.894 274.362 294.894V290.894C269.643 290.894 265.85 294.696 265.85 299.414H269.85ZM274.362 294.894C276.866 294.894 278.873 296.9 278.873 299.414H282.873C282.873 294.696 279.08 290.894 274.362 290.894V294.894ZM278.873 299.414C278.873 301.916 276.822 303.933 274.362 303.933V307.933C279.014 307.933 282.873 304.143 282.873 299.414H278.873ZM377.44 382.314C370.249 369.448 354.108 364.371 340.895 370.808L342.647 374.404C353.946 368.899 367.789 373.245 373.949 384.265L377.44 382.314ZM340.876 370.818C340.698 370.907 340.564 370.998 340.524 371.025C340.482 371.053 340.534 371.017 340.602 370.982L342.393 374.559C342.571 374.47 342.704 374.379 342.745 374.352C342.786 374.324 342.735 374.361 342.666 374.395L340.876 370.818ZM340.602 370.982C335.221 373.676 328.632 371.582 325.807 366.295L322.279 368.18C326.129 375.384 335.079 378.22 342.393 374.559L340.602 370.982ZM325.816 366.311L296.379 309.992L292.834 311.845L322.271 368.164L325.816 366.311ZM292.859 309.945L276.883 338.597L280.376 340.545L296.353 311.893L292.859 309.945ZM276.819 340.422L280.321 347.873L283.941 346.171L280.439 338.72L276.819 340.422ZM280.37 347.969C282.799 352.486 288.426 354.237 292.963 351.862L291.107 348.318C288.53 349.668 285.293 348.679 283.893 346.075L280.37 347.969ZM292.967 351.859C295.136 350.716 297.843 351.535 298.957 353.692L302.511 351.856C300.343 347.659 295.171 346.177 291.102 348.32L292.967 351.859ZM298.967 353.711L328.349 409.153L331.884 407.28L302.502 351.838L298.967 353.711ZM328.351 409.156C335.598 422.783 352.511 427.98 366.13 420.719L364.248 417.19C352.589 423.406 338.096 418.961 331.882 407.278L328.351 409.156ZM366.129 420.72C379.974 413.346 385.1 396.06 377.442 382.316L373.947 384.263C380.515 396.048 376.121 410.866 364.249 417.189L366.129 420.72ZM357.53 404.419C352.861 406.87 347.123 405.093 344.688 400.488L341.152 402.358C344.627 408.93 352.786 411.426 359.389 407.96L357.53 404.419ZM344.692 400.496C342.242 395.816 344.02 390.068 348.617 387.631L346.744 384.097C340.179 387.577 337.689 395.744 341.148 402.351L344.692 400.496ZM348.61 387.635C353.279 385.184 359.017 386.961 361.451 391.565L364.988 389.696C361.513 383.124 353.353 380.628 346.751 384.094L348.61 387.635ZM361.451 391.565C363.889 396.175 362.132 401.934 357.509 404.43L359.409 407.949C365.948 404.419 368.46 396.262 364.988 389.696L361.451 391.565ZM252.8 291.018L268.777 262.311L265.282 260.366L249.305 289.073L252.8 291.018ZM268.803 260.414L215.456 158.075L211.909 159.925L265.256 262.263L268.803 260.414ZM211.712 158.656L210.946 163.038L214.886 163.727L215.652 159.344L211.712 158.656ZM210.944 163.047C206.439 189.503 210.777 216.686 223.351 240.362L226.884 238.486C214.727 215.595 210.53 189.308 214.888 163.719L210.944 163.047ZM223.338 240.336L249.273 290.957L252.833 289.134L226.898 238.512L223.338 240.336Z" fill="black"/>
<path d="M47.4075 187.497C47.553 187.27 47.4711 186.897 47.1617 186.379C46.8523 185.86 46.1778 185.268 45.1381 184.603L21.7453 169.638C20.7056 168.973 19.9018 168.619 19.3339 168.576C18.7336 168.513 18.3444 168.584 18.1664 168.791L29.8269 150.564C31.4482 148.03 33.0085 146.235 34.5078 145.179C36.0072 144.124 37.4963 143.657 38.9751 143.779C40.4214 143.88 41.8756 144.398 43.3376 145.334C44.5073 146.082 45.3631 146.927 45.9052 147.869C46.4355 148.758 46.7307 149.656 46.7906 150.565C46.8505 151.473 46.7968 152.308 46.6293 153.071L46.7268 153.134C48.5651 151.334 50.4609 150.303 52.4139 150.041C54.3344 149.759 56.3344 150.283 58.4137 151.613C59.8108 152.507 60.9825 153.646 61.9287 155.029C62.875 156.413 63.2924 158.122 63.1811 160.157C63.058 162.139 62.1027 164.527 60.3151 167.321L47.4075 187.497ZM48.7011 173.559L53.3778 166.248C54.5626 164.396 55.1445 162.914 55.1235 161.802C55.0908 160.636 54.4733 159.669 53.2712 158.9C52.1341 158.173 50.9762 158.05 49.7977 158.532C48.5867 158.994 47.3369 160.232 46.0482 162.246L41.7145 169.02C41.0909 169.995 40.7817 170.621 40.787 170.9C40.813 171.145 41.1997 171.507 41.947 171.985L45.992 174.573C46.7068 175.03 47.1811 175.219 47.415 175.14C47.6697 175.028 48.0984 174.501 48.7011 173.559ZM36.7435 165.84L40.4225 160.089C41.4201 158.53 41.8669 157.259 41.7628 156.277C41.6469 155.241 41.0529 154.38 39.9808 153.694C38.9086 153.008 37.9047 152.824 36.9692 153.141C36.0544 153.426 35.0878 154.364 34.0693 155.956L30.328 161.805C29.7044 162.779 29.4057 163.389 29.4317 163.635C29.4252 163.86 29.7957 164.211 30.5429 164.689L34.0031 166.903C34.7179 167.36 35.1922 167.549 35.4261 167.47C35.6808 167.358 36.1199 166.815 36.7435 165.84Z" fill="black"/>
<path d="M72.1358 150.539C72.3174 150.339 72.2991 149.958 72.081 149.395C71.8629 148.832 71.297 148.135 70.3835 147.305L49.8292 128.632C48.9157 127.802 48.1826 127.318 47.6299 127.181C47.0487 127.017 46.653 127.023 46.4429 127.197L54.0681 118.804C53.8865 119.004 53.9048 119.385 54.1229 119.948C54.341 120.511 54.9211 121.22 55.8632 122.076L72.8633 137.521C73.4914 138.091 73.9416 138.37 74.214 138.357C74.4838 138.29 75.0078 137.828 75.7858 136.971L85.1616 126.651C86.6659 124.995 87.6864 123.499 88.223 122.163C88.757 120.772 88.9811 119.751 88.8953 119.1L92.8667 125.053L94.1942 126.259L72.1358 150.539Z" fill="black"/>
<path d="M100.793 120.069C101.005 119.902 101.05 119.522 100.929 118.931C100.807 118.34 100.365 117.559 99.6014 116.589L82.4298 94.7643C81.6666 93.7943 81.0239 93.1957 80.5017 92.9686C79.9556 92.7112 79.5646 92.6508 79.3285 92.7874L105.882 71.8953L106.955 73.2594L112.015 77.8182C110.994 78.081 109.386 78.7818 107.191 79.9206C104.971 81.029 102.512 82.6446 99.8142 84.7672L93.0849 90.0617C92.1755 90.7772 91.6895 91.2823 91.6269 91.5769C91.5707 91.8174 91.7931 92.256 92.2939 92.8925L94.9412 96.2572C95.4659 96.9241 95.8517 97.2585 96.0987 97.2605C96.3759 97.2387 96.9541 96.8819 97.8332 96.1903L104.381 91.0388C106.139 89.6555 107.477 88.4556 108.395 87.439C109.319 86.3682 109.864 85.5956 110.031 85.1211C110.363 85.7924 110.751 86.5666 111.196 87.4436C111.64 88.3207 112.091 89.1436 112.549 89.9123C113.007 90.6811 113.414 91.2928 113.772 91.7474L101.768 101.192C100.889 101.883 100.406 102.361 100.32 102.626C100.24 102.836 100.474 103.29 101.023 103.987L103.67 107.352C104.219 108.049 104.616 108.398 104.863 108.4C105.11 108.402 105.688 108.046 106.598 107.33L118.874 97.671C120.632 96.2878 121.887 94.9818 122.638 93.753C123.395 92.47 123.786 91.5003 123.809 90.8439L127.192 97.0156L128.301 98.4252L100.793 120.069Z" fill="black"/>
<path d="M152.292 85.3443C148.592 87.3408 145.225 88.9387 142.191 90.138C139.156 91.3372 136.92 92.106 135.48 92.4443L134.656 90.9169L130.148 85.0003C131.086 85.1953 132.467 85.1954 134.29 85.0004C136.113 84.8054 138.315 84.2966 140.895 83.4739C143.457 82.6174 146.282 81.3556 149.371 79.6887C151.272 78.663 152.667 77.7565 153.558 76.9694C154.429 76.1484 154.924 75.3995 155.041 74.7228C155.157 74.0461 155.042 73.3853 154.694 72.7404C154.254 71.9258 153.644 71.4444 152.863 71.2962C152.063 71.1141 150.868 71.2549 149.278 71.7188C147.721 72.1643 145.561 72.9134 142.799 73.9661C139.49 75.2257 136.608 76.0577 134.153 76.4623C131.698 76.8668 129.613 76.699 127.899 75.9587C126.166 75.1844 124.714 73.7111 123.541 71.5388C122.589 69.7738 122.214 67.9821 122.416 66.1637C122.618 64.3454 123.536 62.5134 125.169 60.6676C126.803 58.8218 129.3 56.9922 132.66 55.1788C136.19 53.2738 139.303 51.8133 141.998 50.7972C144.692 49.7811 146.607 49.1864 147.74 49.0129L148.565 50.5404L153.114 55.3166C152.028 55.3333 150.558 55.5345 148.707 55.9202C146.855 56.3059 144.794 56.9139 142.525 57.7441C140.237 58.5403 137.872 59.5979 135.428 60.9167C133.9 61.741 132.786 62.5179 132.084 63.2473C131.363 63.9429 130.945 64.629 130.828 65.3057C130.726 65.9301 130.859 66.5817 131.225 67.2606C131.665 68.0752 132.328 68.5723 133.213 68.7517C134.115 68.8789 135.361 68.7105 136.951 68.2467C138.541 67.7828 140.615 67.0364 143.171 66.0074C147.091 64.4182 150.272 63.4905 152.714 63.2244C155.156 62.9583 157.099 63.2686 158.542 64.1555C160 64.9901 161.215 66.3068 162.186 68.1058C163.028 69.6672 163.481 71.1976 163.546 72.6969C163.591 74.1624 163.205 75.5982 162.386 77.0044C161.601 78.3922 160.359 79.7857 158.659 81.1848C156.994 82.5657 154.871 83.9521 152.292 85.3443Z" fill="black"/>
<path d="M192.999 67.9806C189.011 69.3086 185.418 70.3014 182.222 70.9589C179.027 71.6164 176.691 71.9876 175.215 72.0724L174.667 70.4256L171.248 63.8198C172.138 64.1739 173.498 64.4122 175.327 64.5348C177.157 64.6574 179.413 64.5363 182.097 64.1713C184.768 63.7697 187.769 63.0146 191.099 61.9059C193.148 61.2236 194.679 60.5716 195.692 59.9499C196.692 59.2916 197.308 58.6393 197.54 57.993C197.772 57.3466 197.772 56.6758 197.541 55.9805C197.248 55.1022 196.73 54.5227 195.986 54.2419C195.23 53.9245 194.029 53.857 192.382 54.0394C190.772 54.2095 188.516 54.5746 185.613 55.1347C182.136 55.8043 179.154 56.1264 176.666 56.1011C174.178 56.0759 172.153 55.5507 170.592 54.5256C169.019 53.4639 167.843 51.762 167.063 49.42C166.43 47.517 166.369 45.6875 166.882 43.9313C167.395 42.1751 168.615 40.529 170.543 38.9929C172.471 37.4568 175.246 36.0856 178.869 34.8794C182.675 33.6123 185.993 32.7109 188.822 32.1752C191.652 31.6396 193.64 31.3841 194.787 31.4089L195.335 33.0557L198.992 38.5456C197.919 38.3745 196.437 38.319 194.547 38.3794C192.656 38.4397 190.522 38.6829 188.143 39.1089C185.752 39.4984 183.24 40.1317 180.605 41.0089C178.958 41.5572 177.726 42.13 176.908 42.7274C176.079 43.2881 175.548 43.8917 175.316 44.538C175.109 45.1356 175.127 45.8004 175.37 46.5323C175.663 47.4105 176.23 48.0145 177.071 48.3441C177.937 48.6249 179.193 48.6742 180.84 48.4918C182.487 48.3094 184.658 47.9321 187.353 47.3598C191.488 46.4709 194.782 46.1062 197.233 46.2656C199.685 46.425 201.545 47.066 202.813 48.1886C204.105 49.2624 205.074 50.769 205.72 52.7085C206.28 54.3919 206.463 55.9776 206.267 57.4655C206.059 58.9169 205.431 60.2644 204.381 61.5081C203.369 62.7396 201.905 63.8978 199.989 64.9826C198.111 66.0553 195.781 67.0546 192.999 67.9806Z" fill="black"/>
<path d="M217.479 60.1222C217.746 60.0819 217.973 59.7747 218.159 59.2005C218.346 58.6263 218.347 57.729 218.163 56.5086L214.023 29.0485C213.839 27.8281 213.577 26.9901 213.235 26.5345C212.887 26.0408 212.577 25.795 212.305 25.7972L245.714 20.7605L245.973 22.4768L248.118 28.9405C247.101 28.6647 245.357 28.4791 242.885 28.3836C240.407 28.25 237.472 28.4391 234.077 28.9508L225.61 30.2272C224.466 30.3997 223.794 30.5985 223.594 30.8237C223.426 31.005 223.403 31.4961 223.524 32.2971L224.162 36.5305C224.288 37.3695 224.458 37.851 224.672 37.9748C224.924 38.0928 225.603 38.0685 226.709 37.9018L234.947 36.6598C237.159 36.3264 238.915 35.9446 240.215 35.5145C241.548 35.0406 242.404 34.6385 242.783 34.3083C242.74 35.0559 242.695 35.9208 242.648 36.9031C242.601 37.8853 242.587 38.8236 242.604 39.718C242.622 40.6125 242.674 41.3458 242.76 41.9178L227.657 44.1947C226.551 44.3614 225.895 44.5383 225.69 44.7254C225.516 44.8685 225.496 45.3787 225.628 46.2559L226.266 50.4893C226.398 51.3665 226.571 51.867 226.785 51.9908C226.999 52.1146 227.678 52.0903 228.822 51.9178L244.268 49.5892C246.48 49.2557 248.216 48.7405 249.476 48.0434C250.769 47.3025 251.587 46.6525 251.932 46.0935L251.823 53.131L252.09 54.9044L217.479 60.1222Z" fill="black"/>
<path d="M260.67 54.3364C260.94 54.3433 261.216 54.0803 261.5 53.5474C261.784 53.0145 261.941 52.1311 261.973 50.8973L262.682 23.1361C262.714 21.9022 262.601 21.0312 262.344 20.5231C262.088 19.9764 261.825 19.6803 261.556 19.6349L279.717 20.0989C283.11 20.1855 285.955 20.5862 288.251 21.3008C290.548 22.0153 292.376 22.9687 293.734 24.1609C295.131 25.3541 296.177 26.7119 296.871 28.2343C297.566 29.7182 298.008 31.2921 298.197 32.956C298.425 34.6208 298.517 36.3015 298.473 37.998C298.434 39.5403 298.258 41.137 297.946 42.7881C297.673 44.4016 297.132 45.9503 296.322 47.4344C295.552 48.8808 294.439 50.1835 292.982 51.3423C291.564 52.4635 289.69 53.3416 287.359 53.9766C285.066 54.6125 282.223 54.8871 278.83 54.8004L260.67 54.3364ZM273.268 48.2343L275.64 48.2949C278.956 48.3796 281.623 48.1777 283.642 47.6891C285.661 47.162 287.153 46.1584 288.117 44.6783C289.081 43.1982 289.599 41.0315 289.672 38.1783L289.699 37.1372C289.775 34.1298 289.408 31.9019 288.596 30.4536C287.785 28.9668 286.383 27.9664 284.39 27.4525C282.397 26.9386 279.665 26.6373 276.195 26.5486L273.824 26.488C272.706 26.4595 272.029 26.5193 271.794 26.6677C271.598 26.7784 271.49 27.2386 271.469 28.0483L270.999 46.4401C270.978 47.2884 271.061 47.7921 271.25 47.9513C271.477 48.1114 272.15 48.2058 273.268 48.2343Z" fill="black"/>
<path d="M324.905 59.372C325.165 59.4472 325.499 59.2632 325.909 58.8198C326.319 58.3764 326.696 57.562 327.039 56.3767L334.776 29.706C335.12 28.5206 335.232 27.6495 335.113 27.0927C335.004 26.4989 334.825 26.1459 334.577 26.0336L345.467 29.1929C345.208 29.1177 344.873 29.3018 344.464 29.7452C344.054 30.1885 343.672 31.0214 343.317 32.2438L340.851 40.7451C340.615 41.5601 340.568 42.0685 340.71 42.2704C340.889 42.483 341.534 42.7505 342.646 43.0729L356.926 47.2155C358.037 47.5378 358.701 47.6703 358.919 47.6129C359.147 47.5185 359.384 47.0453 359.632 46.1933L362.114 37.6364C362.458 36.4511 362.57 35.58 362.45 35.0232C362.341 34.4294 362.163 34.0764 361.914 33.9641L372.805 37.1234C372.545 37.0482 372.211 37.2323 371.801 37.6756C371.391 38.119 371.009 38.9519 370.655 40.1743L362.934 66.7895C362.59 67.9748 362.472 68.8644 362.581 69.4582C362.69 70.0521 362.874 70.3866 363.133 70.4618L352.243 67.3025C352.502 67.3777 352.837 67.1936 353.246 66.7503C353.656 66.3069 354.033 65.4925 354.377 64.3072L356.891 55.6392C357.139 54.7872 357.167 54.2734 356.977 54.0978C356.835 53.8959 356.227 53.6391 355.152 53.3275L340.872 49.185C339.761 48.8626 339.073 48.7432 338.808 48.8269C338.58 48.9214 338.347 49.3761 338.111 50.191L335.596 58.859C335.252 60.0443 335.135 60.9339 335.244 61.5278C335.353 62.1216 335.537 62.4561 335.796 62.5313L324.905 59.372Z" fill="black"/>
<path d="M368.829 72.6176C369.002 72.7043 369.381 72.5931 369.969 72.284C370.59 71.9922 371.428 71.3991 372.483 70.5047C372.984 70.1091 373.805 69.4211 374.945 68.4406C376.138 67.443 377.495 66.2906 379.016 64.9832C380.589 63.6588 382.213 62.2741 383.89 60.8292C385.601 59.4016 387.226 58.0169 388.764 56.6751C390.337 55.3506 391.702 54.181 392.86 53.166C394.053 52.1684 394.891 51.4459 395.375 50.9986C396.378 50.1213 397.017 49.4501 397.295 48.985C397.572 48.52 397.624 48.2441 397.452 48.1574L408.719 53.8246C408.581 53.7553 408.408 53.9705 408.2 54.4702C408.009 54.9355 407.852 55.8493 407.728 57.2117C407.657 57.867 407.56 58.962 407.436 60.4969C407.328 61.9973 407.195 63.765 407.035 65.8C406.892 67.8006 406.741 69.9046 406.58 72.1121C406.42 74.3196 406.259 76.4408 406.099 78.4758C405.956 80.4764 405.84 82.2527 405.75 83.8049C405.66 85.3571 405.597 86.4696 405.561 87.1422C405.506 88.5392 405.598 89.6002 405.838 90.3253C406.078 91.0503 406.319 91.4735 406.56 91.5948L394.827 85.6937C395.12 85.7979 395.474 85.6521 395.889 85.2563C396.356 84.8435 396.754 84.051 397.085 82.8788C397.172 82.6203 397.233 82.4134 397.267 82.2583C397.32 82.0687 397.372 81.7928 397.425 81.4307C397.547 80.8445 397.574 80.4047 397.505 80.1113C397.454 79.7835 397.231 79.4984 396.835 79.2559C396.473 79.0308 395.844 78.693 394.948 78.2424L386.058 73.7711C385.128 73.3031 384.422 72.991 383.939 72.8346C383.474 72.6437 383.103 72.6084 382.827 72.7285C382.55 72.8485 382.239 73.1238 381.893 73.5542C381.772 73.7092 381.608 73.9071 381.4 74.1481C381.227 74.4064 381.08 74.6131 380.959 74.768C380.163 75.7493 379.696 76.5072 379.556 77.0416C379.452 77.5933 379.494 77.9384 379.683 78.0768L368.829 72.6176ZM390.262 68.7616L396.309 71.8031C397.308 72.3057 397.903 72.4969 398.093 72.3766C398.283 72.2563 398.422 71.8512 398.51 71.1615C398.616 69.8336 398.732 68.4884 398.856 67.126C398.997 65.7292 399.138 64.3755 399.279 63.0649C399.455 61.7717 399.622 60.5819 399.779 59.4956C399.989 58.3921 400.155 57.4611 400.278 56.7024L400.174 56.6504C399.051 57.6827 397.875 58.7752 396.648 59.928C395.42 61.0807 394.279 62.1475 393.225 63.1282C392.17 64.1089 391.306 64.9261 390.632 65.58C389.975 66.1994 389.646 66.5091 389.646 66.5091C389.128 66.9391 388.842 67.292 388.79 67.5679C388.737 67.8438 389.228 68.2417 390.262 68.7616Z" fill="black"/>
<path d="M411.645 95.0579C411.86 95.2201 412.238 95.1665 412.779 94.8971C413.319 94.6277 413.96 93.9997 414.702 93.0131L431.388 70.8151C432.129 69.8285 432.543 69.0537 432.629 68.4907C432.737 67.8968 432.695 67.5033 432.503 67.3103L441.567 74.1239C441.351 73.9617 441.127 74.1311 440.895 74.6323C440.694 75.1566 440.646 76.2789 440.753 77.9993C440.814 78.4313 440.867 79.1951 440.912 80.2905C441.011 81.3783 441.114 82.6859 441.22 84.2134C441.326 85.7409 441.421 87.3802 441.504 89.1314C441.618 90.9057 441.732 92.68 441.845 94.4544C441.99 96.2519 442.123 97.9684 442.245 99.6039L442.291 99.6386L452.199 86.4585C452.94 85.472 453.354 84.6972 453.439 84.1341C453.548 83.5403 453.506 83.1468 453.313 82.9538L462.377 89.7674C462.162 89.6051 461.784 89.6587 461.243 89.9281C460.703 90.1975 460.05 90.8409 459.286 91.8583L442.634 114.01C441.892 114.997 441.467 115.787 441.359 116.381C441.25 116.975 441.304 117.353 441.519 117.515L433.565 111.536C433.75 111.675 433.928 111.47 434.098 110.923C434.299 110.399 434.378 109.299 434.333 107.626C434.319 106.746 434.281 105.608 434.221 104.212C434.184 102.785 434.124 101.196 434.041 99.4445C433.989 97.7165 433.925 95.9075 433.85 94.0175C433.775 92.1275 433.677 90.2684 433.556 88.44C433.488 86.604 433.413 84.9069 433.33 83.3485L433.191 83.2442L421.823 98.3667C421.082 99.3533 420.657 100.143 420.548 100.737C420.439 101.331 420.493 101.709 420.709 101.871L411.645 95.0579Z" fill="black"/>
<path d="M448.061 123.503C448.244 123.701 448.626 123.716 449.206 123.548C449.785 123.38 450.528 122.877 451.435 122.039L471.831 103.193C472.737 102.355 473.283 101.667 473.468 101.129C473.682 100.564 473.711 100.169 473.556 99.9448L485.885 113.287C488.188 115.78 489.884 118.099 490.973 120.243C492.062 122.388 492.653 124.363 492.746 126.168C492.864 128.001 492.62 129.698 492.012 131.257C491.433 132.79 490.613 134.204 489.552 135.499C488.517 136.823 487.377 138.061 486.13 139.213C484.997 140.26 483.73 141.247 482.329 142.174C480.982 143.104 479.494 143.795 477.866 144.25C476.292 144.706 474.582 144.816 472.735 144.579C470.943 144.345 469.007 143.613 466.926 142.385C464.872 141.185 462.693 139.338 460.39 136.845L448.061 123.503ZM461.219 128.28L462.829 130.023C465.08 132.459 467.085 134.23 468.842 135.337C470.628 136.417 472.388 136.787 474.121 136.446C475.854 136.105 477.768 134.966 479.865 133.029L480.63 132.322C482.839 130.28 484.18 128.464 484.652 126.872C485.153 125.254 484.893 123.552 483.871 121.764C482.85 119.977 481.162 117.809 478.806 115.259L477.196 113.517C476.437 112.696 475.922 112.252 475.652 112.187C475.436 112.124 475.031 112.367 474.436 112.917L460.923 125.403C460.3 125.979 459.997 126.39 460.015 126.636C460.059 126.911 460.46 127.459 461.219 128.28Z" fill="black"/>
<path d="M488.357 174.164C486.091 170.623 484.248 167.384 482.827 164.446C481.407 161.509 480.474 159.336 480.03 157.926L481.492 156.99L487.058 152.057C486.933 153.006 487.036 154.383 487.365 156.187C487.695 157.991 488.366 160.149 489.377 162.661C490.421 165.152 491.889 167.876 493.78 170.833C494.944 172.652 495.951 173.977 496.802 174.806C497.686 175.614 498.469 176.052 499.153 176.118C499.836 176.185 500.487 176.02 501.104 175.626C501.884 175.127 502.319 174.482 502.409 173.692C502.531 172.882 502.302 171.7 501.721 170.149C501.162 168.629 500.255 166.531 499 163.854C497.499 160.648 496.455 157.836 495.87 155.417C495.284 152.999 495.297 150.907 495.908 149.143C496.552 147.358 497.914 145.8 499.993 144.47C501.683 143.389 503.442 142.882 505.27 142.949C507.098 143.015 508.993 143.795 510.955 145.287C512.917 146.779 514.926 149.134 516.984 152.351C519.145 155.73 520.833 158.725 522.046 161.338C523.259 163.95 523.994 165.815 524.251 166.932L522.789 167.867L518.363 172.759C518.266 171.676 517.956 170.226 517.434 168.408C516.912 166.59 516.153 164.58 515.157 162.379C514.193 160.156 512.963 157.875 511.467 155.536C510.532 154.074 509.674 153.02 508.895 152.374C508.148 151.707 507.433 151.34 506.749 151.274C506.119 151.219 505.479 151.4 504.829 151.815C504.049 152.314 503.603 153.012 503.489 153.908C503.429 154.817 503.69 156.047 504.27 157.598C504.851 159.15 505.749 161.163 506.964 163.636C508.84 167.427 510.001 170.53 510.447 172.946C510.894 175.362 510.728 177.322 509.951 178.826C509.226 180.343 508.003 181.652 506.281 182.753C504.787 183.709 503.294 184.275 501.804 184.45C500.346 184.604 498.885 184.325 497.422 183.612C495.98 182.932 494.498 181.797 492.977 180.206C491.476 178.648 489.936 176.634 488.357 174.164Z" fill="black"/>
<path d="M54.68 290.64C47.3413 290.64 42.0293 288.891 38.744 285.392C35.5013 281.851 33.88 276.923 33.88 270.608C33.88 266.555 34.584 263.077 35.992 260.176C37.4427 257.232 39.6827 254.971 42.712 253.392C45.784 251.771 49.7733 250.96 54.68 250.96H56.664C61.4853 250.96 65.3893 251.749 68.376 253.328C71.4053 254.907 73.624 257.168 75.032 260.112C76.44 263.056 77.144 266.555 77.144 270.608C77.144 276.923 75.5227 281.851 72.28 285.392C69.0373 288.891 63.832 290.64 56.664 290.64H54.68ZM55.32 285.456H56.024C59.224 285.456 61.848 284.987 63.896 284.048C65.944 283.109 67.4587 281.573 68.44 279.44C69.464 277.264 69.976 274.32 69.976 270.608C69.976 266.981 69.464 264.123 68.44 262.032C67.416 259.899 65.88 258.384 63.832 257.488C61.784 256.549 59.1813 256.08 56.024 256.08H55.32C52.12 256.08 49.4533 256.549 47.32 257.488C45.2293 258.427 43.6507 259.963 42.584 262.096C41.56 264.229 41.048 267.067 41.048 270.608C41.048 274.277 41.56 277.2 42.584 279.376C43.6507 281.552 45.2507 283.109 47.384 284.048C49.5173 284.987 52.1627 285.456 55.32 285.456ZM104.832 290.64C97.4933 290.64 91.9893 289.061 88.32 285.904C84.6933 282.704 82.88 277.669 82.88 270.8C82.88 266.832 83.6267 263.376 85.12 260.432C86.6133 257.445 88.9813 255.12 92.224 253.456C95.4667 251.792 99.6693 250.96 104.832 250.96C108.885 250.96 112.256 251.173 114.944 251.6C117.632 252.027 119.445 252.453 120.384 252.88V254.16L121.664 259.92C120.853 259.365 119.637 258.789 118.016 258.192C116.437 257.595 114.539 257.104 112.32 256.72C110.101 256.293 107.648 256.08 104.96 256.08C101.163 256.08 98.176 256.72 96 258C93.824 259.237 92.288 260.965 91.392 263.184C90.496 265.403 90.048 267.941 90.048 270.8C90.048 273.659 90.496 276.197 91.392 278.416C92.3307 280.592 93.9947 282.32 96.384 283.6C98.816 284.837 102.293 285.456 106.816 285.456C110.485 285.456 113.536 285.029 115.968 284.176C118.443 283.28 120.128 282.427 121.024 281.616V283.536L121.664 287.44C120.939 288.123 119.168 288.827 116.352 289.552C113.579 290.277 109.739 290.64 104.832 290.64ZM139.738 290C140.037 290 140.335 289.701 140.634 289.104C140.933 288.507 141.082 287.525 141.082 286.16V258.64C141.082 257.701 140.975 257.147 140.762 256.976C140.549 256.805 139.802 256.72 138.522 256.72H133.85C131.375 256.72 129.37 256.997 127.834 257.552C126.341 258.064 125.359 258.555 124.89 259.024L126.17 252.88V251.6H163.162V252.88L164.442 259.024C163.973 258.555 162.97 258.064 161.434 257.552C159.941 256.997 157.957 256.72 155.482 256.72H150.874C149.551 256.72 148.783 256.805 148.57 256.976C148.357 257.147 148.25 257.701 148.25 258.64V286.16C148.25 287.525 148.399 288.507 148.698 289.104C148.997 289.701 149.295 290 149.594 290H139.738ZM159.2 290C159.37 290 159.669 289.701 160.096 289.104C160.522 288.507 161.077 287.504 161.76 286.096C162.058 285.456 162.57 284.368 163.296 282.832C164.021 281.296 164.874 279.483 165.856 277.392C166.837 275.301 167.861 273.125 168.928 270.864C169.994 268.56 170.997 266.363 171.936 264.272C172.917 262.181 173.77 260.347 174.496 258.768C175.221 257.189 175.733 256.08 176.032 255.44C176.629 254.075 176.949 253.093 176.992 252.496C177.034 251.899 176.949 251.6 176.736 251.6H187.936C187.765 251.6 187.701 251.899 187.744 252.496C187.786 253.093 188.085 254.075 188.64 255.44C188.938 256.08 189.429 257.189 190.112 258.768C190.794 260.304 191.605 262.117 192.544 264.208C193.525 266.299 194.528 268.475 195.552 270.736C196.576 272.955 197.578 275.109 198.56 277.2C199.541 279.291 200.394 281.125 201.12 282.704C201.845 284.283 202.378 285.413 202.72 286.096C203.402 287.504 204.021 288.507 204.576 289.104C205.173 289.701 205.621 290 205.92 290H194.08C194.506 289.915 194.848 289.573 195.104 288.976C195.402 288.379 195.36 287.419 194.976 286.096C194.89 285.755 194.741 285.264 194.528 284.624C194.314 283.984 194.122 283.515 193.951 283.216C193.696 282.619 193.44 282.192 193.184 281.936C192.928 281.68 192.586 281.509 192.16 281.424C191.775 281.339 191.221 281.296 190.496 281.296H174.112C173.301 281.296 172.661 281.339 172.192 281.424C171.722 281.467 171.36 281.616 171.104 281.872C170.89 282.128 170.677 282.555 170.464 283.152C170.293 283.664 170.122 284.176 169.952 284.688C169.781 285.2 169.653 285.669 169.568 286.096C169.184 287.504 169.077 288.507 169.248 289.104C169.418 289.701 169.653 290 169.952 290H159.2ZM175.776 276.176H188.64C189.877 276.176 190.56 276.069 190.688 275.856C190.816 275.643 190.752 275.173 190.496 274.448C189.941 273.083 189.301 271.611 188.576 270.032C187.85 268.411 187.104 266.811 186.336 265.232C185.61 263.611 184.885 262.075 184.16 260.624C183.477 259.131 182.88 257.829 182.368 256.72H182.24C181.344 258.597 180.426 260.56 179.488 262.608C178.549 264.613 177.653 266.512 176.8 268.304C175.989 270.053 175.328 271.483 174.816 272.592C174.304 273.701 174.048 274.256 174.048 274.256C173.749 274.939 173.642 275.429 173.728 275.728C173.856 276.027 174.538 276.176 175.776 276.176Z" fill="black"/>
<line x1="31" y1="304.5" x2="202" y2="304.5" stroke="black" stroke-width="7"/>
<line x1="31" y1="237.5" x2="202" y2="237.5" stroke="black" stroke-width="7"/>
<path d="M347.84 290C348.139 290 348.437 289.701 348.736 289.104C349.035 288.507 349.184 287.525 349.184 286.16V255.44C349.184 254.075 349.035 253.115 348.736 252.56C348.437 251.963 348.139 251.643 347.84 251.6H357.696C357.397 251.6 357.099 251.899 356.8 252.496C356.501 253.093 356.352 254.096 356.352 255.504V286.16C356.352 287.525 356.501 288.507 356.8 289.104C357.099 289.701 357.397 290 357.696 290H347.84ZM385.243 290.64C377.904 290.64 372.592 288.891 369.307 285.392C366.064 281.851 364.443 276.923 364.443 270.608C364.443 266.555 365.147 263.077 366.555 260.176C368.005 257.232 370.245 254.971 373.275 253.392C376.347 251.771 380.336 250.96 385.243 250.96H387.227C392.048 250.96 395.952 251.749 398.939 253.328C401.968 254.907 404.187 257.168 405.595 260.112C407.003 263.056 407.707 266.555 407.707 270.608C407.707 276.923 406.085 281.851 402.843 285.392C399.6 288.891 394.395 290.64 387.227 290.64H385.243ZM385.883 285.456H386.587C389.787 285.456 392.411 284.987 394.458 284.048C396.507 283.109 398.021 281.573 399.003 279.44C400.027 277.264 400.539 274.32 400.539 270.608C400.539 266.981 400.027 264.123 399.003 262.032C397.979 259.899 396.443 258.384 394.395 257.488C392.347 256.549 389.744 256.08 386.587 256.08H385.883C382.683 256.08 380.016 256.549 377.883 257.488C375.792 258.427 374.213 259.963 373.147 262.096C372.123 264.229 371.611 267.067 371.611 270.608C371.611 274.277 372.123 277.2 373.147 279.376C374.213 281.552 375.813 283.109 377.947 284.048C380.08 284.987 382.725 285.456 385.883 285.456ZM433.795 290.64C429.485 290.64 425.944 289.957 423.171 288.592C420.397 287.227 418.349 285.264 417.027 282.704C415.704 280.101 415.043 277.008 415.043 273.424V255.376C415.043 254.011 414.893 253.051 414.595 252.496C414.339 251.899 414.061 251.6 413.763 251.6H423.491C423.192 251.643 422.893 251.941 422.595 252.496C422.339 253.051 422.211 254.011 422.211 255.376V273.296C422.211 276.283 422.68 278.672 423.619 280.464C424.557 282.213 425.901 283.493 427.651 284.304C429.4 285.072 431.469 285.456 433.859 285.456H434.563C436.397 285.456 438.019 285.243 439.427 284.816C440.835 284.389 442.029 283.707 443.011 282.768C443.992 281.829 444.717 280.592 445.187 279.056C445.699 277.477 445.955 275.557 445.955 273.296V255.376C445.955 254.011 445.805 253.051 445.507 252.496C445.251 251.899 444.973 251.6 444.675 251.6H454.403C454.104 251.643 453.805 251.963 453.507 252.56C453.251 253.115 453.123 254.075 453.123 255.44V273.424C453.123 277.008 452.44 280.101 451.075 282.704C449.752 285.264 447.704 287.227 444.931 288.592C442.2 289.957 438.701 290.64 434.435 290.64H433.795ZM481.561 290.64C476.91 290.64 472.793 290.427 469.209 290C465.625 289.573 463.044 289.147 461.465 288.72V287.44L460.185 280.592C460.782 281.275 461.913 282 463.577 282.768C465.284 283.536 467.545 284.197 470.361 284.752C473.177 285.264 476.526 285.52 480.409 285.52C483.908 285.52 486.553 285.285 488.345 284.816C490.18 284.304 491.417 283.621 492.057 282.768C492.74 281.872 493.081 280.848 493.081 279.696C493.081 278.331 492.526 277.243 491.417 276.432C490.308 275.621 488.644 274.981 486.425 274.512C484.249 274 481.54 273.552 478.297 273.168C474.073 272.613 470.681 271.888 468.121 270.992C465.561 270.053 463.705 268.816 462.553 267.28C461.401 265.744 460.825 263.803 460.825 261.456C460.825 259.451 461.422 257.659 462.617 256.08C463.854 254.501 465.71 253.264 468.185 252.368C470.66 251.429 473.817 250.96 477.657 250.96C482.094 250.96 485.956 251.173 489.241 251.6C492.526 252.027 494.852 252.453 496.217 252.88V254.16L498.137 259.92C497.241 259.365 495.854 258.789 493.977 258.192C492.142 257.595 489.924 257.104 487.321 256.72C484.718 256.293 481.817 256.08 478.617 256.08C475.972 256.08 473.86 256.272 472.281 256.656C470.745 257.04 469.636 257.616 468.953 258.384C468.313 259.109 467.993 260.005 467.993 261.072C467.993 262.48 468.505 263.611 469.529 264.464C470.596 265.317 472.132 265.979 474.137 266.448C476.185 266.917 478.66 267.323 481.561 267.664C486.169 268.176 489.838 268.901 492.569 269.84C495.3 270.779 497.262 272.037 498.457 273.616C499.652 275.195 500.249 277.243 500.249 279.76C500.249 281.424 499.844 282.939 499.033 284.304C498.265 285.627 497.092 286.779 495.513 287.76C493.934 288.699 491.972 289.424 489.625 289.936C487.321 290.405 484.633 290.64 481.561 290.64ZM507.293 259.28L506.013 257.04C507.165 256.741 508.189 256.165 509.085 255.312C510.023 254.416 510.493 253.371 510.493 252.176C510.493 250.981 510.151 250.171 509.469 249.744C508.829 249.275 507.847 249.04 506.525 249.04V247.44C506.525 246.459 506.759 245.627 507.229 244.944C507.698 244.261 508.573 243.92 509.853 243.92C511.901 243.92 513.373 244.581 514.269 245.904C515.165 247.227 515.613 248.699 515.613 250.32C515.613 252.069 515.186 253.584 514.333 254.864C513.479 256.144 512.413 257.147 511.133 257.872C509.853 258.597 508.573 259.067 507.293 259.28Z" fill="black"/>
<line x1="344" y1="304.5" x2="509" y2="304.5" stroke="black" stroke-width="7"/>
<line x1="344" y1="237.5" x2="509" y2="237.5" stroke="black" stroke-width="7"/>
<path d="M38.8811 412.781C39.0555 413.049 39.498 413.143 40.2085 413.062C40.919 412.981 41.887 412.542 43.1123 411.744L70.6823 393.802C71.9076 393.005 72.6819 392.31 73.0053 391.718C73.3669 391.101 73.4797 390.646 73.3435 390.353L87.3236 411.835C89.2673 414.821 90.4428 417.382 90.85 419.515C91.2572 421.648 91.0342 423.483 90.1808 425.02C89.3657 426.531 88.0967 427.848 86.3735 428.969C84.995 429.866 83.6652 430.378 82.3839 430.503C81.1659 430.641 80.0521 430.521 79.0425 430.143C78.033 429.764 77.1574 429.298 76.4159 428.745L76.301 428.82C77.3464 431.682 77.5336 434.232 76.8626 436.467C76.2299 438.678 74.6882 440.58 72.2375 442.175C70.591 443.247 68.7901 443.956 66.8348 444.301C64.8795 444.647 62.8309 444.263 60.689 443.15C58.6103 442.05 56.4994 439.853 54.3563 436.56L38.8811 412.781ZM53.2933 420.981L58.9002 429.596C60.3207 431.779 61.6363 433.131 62.847 433.651C64.121 434.184 65.4663 433.99 66.8831 433.068C68.2233 432.196 68.9208 431.006 68.9755 429.499C69.0685 427.967 68.3425 426.013 66.7974 423.639L61.6016 415.656C60.8541 414.507 60.3289 413.867 60.0262 413.737C59.7485 413.646 59.1692 413.886 58.2885 414.459L53.5212 417.562C52.6788 418.11 52.2433 418.53 52.2147 418.821C52.2111 419.15 52.5706 419.87 53.2933 420.981ZM67.4603 411.843L71.8711 418.62C73.0672 420.458 74.2208 421.561 75.3319 421.928C76.5062 422.309 77.7251 422.088 78.9887 421.265C80.2524 420.443 80.9413 419.45 81.0556 418.285C81.1948 417.159 80.6538 415.657 79.4328 413.781L74.9472 406.889C74.1996 405.74 73.6869 405.12 73.4091 405.028C73.1697 404.911 72.6096 405.139 71.7289 405.713L67.6508 408.367C66.8084 408.915 66.3729 409.334 66.3443 409.626C66.3407 409.955 66.7127 410.694 67.4603 411.843Z" fill="black"/>
<path d="M67.4023 455.51C67.5642 455.671 68.0327 455.686 68.8077 455.555C69.6151 455.456 70.7773 455.098 72.2944 454.481C73.0045 454.221 74.1826 453.75 75.8287 453.068C77.5394 452.386 79.4922 451.591 81.6869 450.681C83.9463 449.772 86.2864 448.814 88.7071 447.807C91.1602 446.833 93.5002 445.874 95.7273 444.933C97.9867 444.023 99.9555 443.211 101.634 442.497C103.345 441.815 104.555 441.312 105.265 440.987C106.717 440.37 107.685 439.851 108.169 439.43C108.653 439.009 108.814 438.718 108.652 438.557L119.238 449.098C119.109 448.969 118.835 449.147 118.416 449.632C118.029 450.086 117.514 451.056 116.871 452.543C116.55 453.255 116.036 454.451 115.328 456.133C114.654 457.782 113.85 459.722 112.918 461.953C112.018 464.151 111.07 466.463 110.074 468.888C109.078 471.313 108.114 473.641 107.182 475.873C106.282 478.071 105.495 480.027 104.82 481.741C104.145 483.455 103.664 484.683 103.374 485.427C102.796 486.979 102.508 488.207 102.51 489.112C102.512 490.016 102.626 490.581 102.853 490.807L91.8293 479.831C92.1206 480.056 92.5728 480.023 93.1859 479.731C93.8637 479.439 94.6051 478.694 95.4102 477.497C95.6034 477.238 95.7484 477.028 95.8449 476.866C95.9737 476.672 96.1346 476.381 96.3276 475.993C96.6816 475.378 96.8744 474.893 96.9059 474.538C96.9697 474.15 96.8235 473.747 96.4672 473.327C96.1433 472.941 95.5605 472.328 94.7187 471.49L86.366 463.173C85.4918 462.303 84.8121 461.691 84.3268 461.336C83.8736 460.95 83.4694 460.773 83.1142 460.806C82.7589 460.839 82.307 461.034 81.7586 461.39C81.5651 461.52 81.307 461.682 80.9843 461.877C80.6941 462.103 80.4522 462.281 80.2586 462.411C79.0005 463.221 78.1943 463.902 77.8402 464.452C77.5184 465.034 77.4385 465.438 77.6005 465.664L67.4023 455.51ZM92.9474 459.088L98.6292 464.746C99.5681 465.681 100.167 466.115 100.425 466.05C100.683 465.985 100.989 465.581 101.343 464.837C101.954 463.382 102.58 461.91 103.223 460.423C103.898 458.903 104.558 457.432 105.201 456.009C105.876 454.619 106.503 453.341 107.082 452.177C107.726 451.012 108.257 450.026 108.675 449.217L108.578 449.121C106.932 449.867 105.205 450.663 103.398 451.506C101.591 452.35 99.9124 453.129 98.3633 453.843C96.8142 454.557 95.5394 455.158 94.539 455.645C93.5709 456.099 93.0868 456.326 93.0868 456.326C92.3444 456.618 91.8927 456.91 91.7318 457.201C91.571 457.492 91.9761 458.121 92.9474 459.088Z" fill="black"/>
<path d="M110.607 496.512C110.876 496.684 111.299 496.576 111.875 496.185C112.489 495.82 113.191 495.022 113.981 493.791L131.747 466.108C132.537 464.877 132.957 463.926 133.009 463.253C133.085 462.542 133.001 462.081 132.757 461.87L151.674 474.01C155.058 476.181 157.478 478.332 158.934 480.461C160.429 482.614 161.088 484.802 160.912 487.022C160.798 489.229 159.964 491.544 158.409 493.967C157.299 495.697 155.985 497.025 154.468 497.951C152.989 498.902 151.421 499.443 149.763 499.573C148.105 499.703 146.461 499.517 144.83 499.013L144.719 499.186C145.862 500.788 146.699 503.036 147.231 505.929C147.788 508.783 148.036 511.738 147.975 514.793C147.947 516.783 148.1 518.32 148.436 519.404C148.772 520.488 149.12 521.173 149.48 521.458L134.945 512.131C135.432 512.389 135.957 512.373 136.522 512.084C137.151 511.782 137.573 510.913 137.789 509.477C138.166 507.113 138.209 504.888 137.919 502.802C137.629 500.716 136.938 498.834 135.844 497.155C134.813 495.462 133.317 493.986 131.356 492.728L130.722 492.321C129.53 491.556 128.776 491.208 128.46 491.277C128.145 491.345 127.74 491.764 127.247 492.533L122.805 499.454C122.016 500.685 121.583 501.655 121.506 502.366C121.43 503.077 121.527 503.519 121.796 503.692L110.607 496.512ZM134.46 486.496L139.189 489.531C141.612 491.085 143.633 491.785 145.252 491.63C146.896 491.436 148.36 490.34 149.643 488.341C150.21 487.456 150.524 486.545 150.584 485.606C150.643 484.667 150.335 483.709 149.659 482.732C149.022 481.78 147.895 480.786 146.28 479.75L140.974 476.345C139.782 475.58 139.053 475.193 138.787 475.185C138.521 475.177 138.141 475.558 137.647 476.327L133.095 483.421C132.601 484.19 132.401 484.713 132.495 484.99C132.613 485.229 133.268 485.731 134.46 486.496Z" fill="black"/>
<path d="M158.377 525.441C158.676 525.553 159.088 525.367 159.613 524.881C160.137 524.395 160.657 523.468 161.172 522.099L172.757 491.313C173.272 489.944 173.485 488.926 173.394 488.258C173.32 487.546 173.142 487.113 172.859 486.958L196.846 495.984C200.182 497.24 202.645 498.606 204.237 500.084C205.829 501.561 206.736 503.172 206.958 504.915C207.197 506.616 206.954 508.428 206.23 510.352C205.651 511.892 204.882 513.091 203.924 513.951C203.025 514.784 202.056 515.347 201.019 515.64C199.981 515.933 199 516.076 198.075 516.07L198.026 516.198C200.564 517.885 202.225 519.828 203.009 522.027C203.808 524.183 203.693 526.629 202.663 529.366C201.971 531.204 200.94 532.842 199.57 534.279C198.199 535.716 196.321 536.62 193.936 536.991C191.609 537.336 188.608 536.817 184.93 535.433L158.377 525.441ZM174.846 523.511L184.467 527.131C186.904 528.048 188.764 528.358 190.048 528.06C191.391 527.735 192.36 526.782 192.955 525.2C193.518 523.703 193.375 522.331 192.526 521.085C191.694 519.795 189.952 518.651 187.301 517.654L178.386 514.299C177.103 513.816 176.301 513.612 175.98 513.686C175.702 513.777 175.378 514.314 175.008 515.298L173.004 520.621C172.65 521.562 172.548 522.158 172.698 522.409C172.89 522.677 173.606 523.044 174.846 523.511ZM180.847 507.757L188.416 510.605C190.468 511.377 192.051 511.582 193.163 511.22C194.335 510.831 195.186 509.931 195.717 508.52C196.248 507.109 196.215 505.9 195.617 504.894C195.062 503.904 193.737 503.015 191.642 502.227L183.945 499.33C182.662 498.848 181.882 498.652 181.604 498.742C181.342 498.79 181.026 499.306 180.655 500.289L178.942 504.843C178.588 505.784 178.486 506.38 178.635 506.631C178.827 506.899 179.565 507.274 180.847 507.757Z" fill="black"/>
<path d="M210.182 543.416C210.499 543.465 210.863 543.197 211.277 542.614C211.691 542.031 212.01 541.017 212.233 539.572L217.258 507.064C217.482 505.619 217.481 504.579 217.255 503.943C217.037 503.262 216.773 502.875 216.464 502.781L256.016 508.895L255.702 510.927L255.842 518.992C254.79 518.321 252.883 517.495 250.123 516.513C247.369 515.487 243.983 514.663 239.964 514.041L229.941 512.492C228.587 512.283 227.757 512.27 227.451 512.454C227.197 512.599 226.997 513.146 226.85 514.094L226.076 519.106C225.922 520.099 225.944 520.704 226.142 520.919C226.385 521.142 227.161 521.354 228.471 521.557L238.223 523.064C240.842 523.469 242.962 523.658 244.584 523.632C246.258 523.567 247.368 523.415 247.914 523.175C247.601 524.005 247.244 524.967 246.844 526.061C246.443 527.155 246.095 528.211 245.799 529.228C245.503 530.246 245.303 531.093 245.198 531.77L227.319 529.006C226.01 528.804 225.205 528.772 224.907 528.911C224.66 529.011 224.456 529.581 224.296 530.619L223.521 535.631C223.361 536.669 223.379 537.296 223.577 537.512C223.775 537.727 224.551 537.94 225.905 538.149L244.191 540.976C246.81 541.381 248.955 541.412 250.626 541.069C252.349 540.688 253.504 540.243 254.092 539.733L251.481 547.65L251.156 549.75L210.182 543.416Z" fill="black"/>
<path d="M263.607 550.371C263.927 550.353 264.206 550.017 264.444 549.364C264.728 548.707 264.83 547.649 264.749 546.19L262.934 513.345C262.853 511.886 262.637 510.868 262.284 510.293C261.93 509.672 261.592 509.347 261.27 509.319L283.713 508.079C287.727 507.857 290.948 508.182 293.376 509.055C295.849 509.925 297.664 511.311 298.822 513.215C300.023 515.07 300.703 517.435 300.861 520.309C300.975 522.362 300.688 524.208 300.001 525.847C299.359 527.484 298.405 528.841 297.137 529.918C295.87 530.994 294.427 531.806 292.811 532.353L292.822 532.558C294.687 533.187 296.682 534.518 298.808 536.551C300.931 538.539 302.863 540.788 304.603 543.3C305.745 544.93 306.77 546.086 307.677 546.768C308.584 547.45 309.267 547.801 309.726 547.822L292.483 548.775C293.028 548.699 293.445 548.378 293.734 547.813C294.066 547.2 293.899 546.248 293.233 544.958C292.154 542.822 290.886 540.993 289.429 539.472C287.972 537.951 286.309 536.83 284.439 536.11C282.612 535.342 280.535 535.022 278.209 535.15L277.456 535.192C276.042 535.27 275.227 535.43 275.012 535.67C274.796 535.911 274.714 536.488 274.764 537.4L275.218 545.611C275.299 547.071 275.516 548.111 275.871 548.732C276.226 549.353 276.562 549.655 276.882 549.637L263.607 550.371ZM277.074 528.281L282.685 527.971C285.559 527.812 287.607 527.196 288.828 526.121C290.048 525.002 290.592 523.256 290.461 520.884C290.403 519.835 290.123 518.912 289.621 518.116C289.12 517.32 288.309 516.724 287.189 516.329C286.115 515.931 284.62 515.784 282.704 515.89L276.409 516.238C274.994 516.316 274.177 516.43 273.957 516.58C273.736 516.729 273.651 517.26 273.701 518.172L274.167 526.589C274.217 527.501 274.361 528.042 274.599 528.212C274.835 528.336 275.66 528.359 277.074 528.281Z" fill="black"/>
<path d="M362.377 533.681C357.702 535.397 353.484 536.701 349.724 537.594C345.964 538.488 343.212 539.011 341.468 539.165L340.759 537.235L336.474 529.536C337.541 529.924 339.159 530.157 341.33 530.236C343.5 530.316 346.167 530.091 349.331 529.563C352.48 528.991 356.005 527.989 359.908 526.557C362.31 525.676 364.099 524.849 365.276 524.076C366.436 523.261 367.142 522.466 367.394 521.693C367.645 520.919 367.621 520.125 367.322 519.31C366.945 518.281 366.31 517.613 365.419 517.308C364.513 516.959 363.088 516.922 361.145 517.197C359.245 517.457 356.586 517.97 353.169 518.737C349.078 519.655 345.558 520.144 342.612 520.203C339.665 520.263 337.249 519.714 335.364 518.556C333.464 517.356 332.01 515.383 331.002 512.638C330.184 510.408 330.047 508.244 330.591 506.146C331.135 504.048 332.52 502.056 334.747 500.168C336.975 498.28 340.211 496.556 344.457 494.998C348.918 493.361 352.813 492.175 356.145 491.439C359.476 490.703 361.821 490.329 363.179 490.317L363.887 492.247L368.414 498.616C367.138 498.452 365.381 498.439 363.145 498.579C360.909 498.718 358.39 499.083 355.589 499.672C352.773 500.219 349.821 501.06 346.733 502.193C344.803 502.901 343.364 503.624 342.418 504.36C341.456 505.054 340.849 505.788 340.598 506.561C340.374 507.276 340.419 508.063 340.734 508.92C341.112 509.95 341.804 510.644 342.813 511.004C343.848 511.306 345.337 511.319 347.28 511.044C349.223 510.769 351.78 510.244 354.951 509.47C359.815 508.269 363.701 507.718 366.609 507.819C369.517 507.92 371.742 508.612 373.284 509.895C374.853 511.12 376.054 512.869 376.889 515.142C377.613 517.115 377.886 518.986 377.707 520.755C377.514 522.481 376.818 524.099 375.62 525.609C374.465 527.103 372.773 528.527 370.545 529.88C368.359 531.218 365.636 532.485 362.377 533.681Z" fill="black"/>
<path d="M392.462 520.66C392.732 520.487 392.828 520.045 392.752 519.334C392.675 518.623 392.242 517.652 391.453 516.422L373.687 488.738C372.897 487.508 372.207 486.729 371.617 486.402C371.003 486.036 370.549 485.921 370.255 486.055L381.559 478.8C381.29 478.973 381.193 479.415 381.27 480.126C381.346 480.837 381.791 481.827 382.606 483.096L388.269 491.92C388.811 492.766 389.228 493.204 389.519 493.235C389.849 493.24 390.59 492.873 391.744 492.133L406.566 482.621C407.72 481.88 408.355 481.391 408.474 481.152C408.567 480.875 408.33 480.294 407.763 479.41L402.063 470.528C401.273 469.298 400.583 468.519 399.993 468.192C399.379 467.826 398.925 467.71 398.631 467.845L409.935 460.59C409.666 460.763 409.569 461.205 409.646 461.916C409.722 462.627 410.167 463.617 410.982 464.886L428.711 492.512C429.5 493.742 430.202 494.54 430.817 494.906C431.432 495.271 431.873 495.368 432.143 495.195L420.838 502.45C421.107 502.277 421.204 501.835 421.128 501.124C421.051 500.413 420.618 499.442 419.829 498.212L414.055 489.215C413.487 488.33 413.051 487.904 412.746 487.937C412.455 487.907 411.752 488.249 410.637 488.965L395.815 498.477C394.662 499.217 394.019 499.738 393.887 500.04C393.793 500.317 394.018 500.879 394.561 501.725L400.335 510.722C401.124 511.952 401.826 512.75 402.441 513.116C403.056 513.482 403.497 513.578 403.767 513.405L392.462 520.66Z" fill="black"/>
<path d="M457.848 471.843C452.348 477.456 447.029 480.207 441.891 480.097C436.752 479.923 431.768 477.47 426.939 472.737C423.839 469.699 421.708 466.555 420.544 463.304C419.38 459.988 419.329 456.58 420.392 453.08C421.455 449.516 423.825 445.857 427.502 442.105L428.989 440.587C432.602 436.9 436.132 434.506 439.578 433.405C443.055 432.272 446.447 432.27 449.754 433.399C453.061 434.529 456.264 436.613 459.364 439.65C464.193 444.383 466.747 449.316 467.025 454.45C467.27 459.552 464.707 464.844 459.335 470.326L457.848 471.843ZM452.895 466.03L453.422 465.491C455.373 463.501 456.645 461.55 457.24 459.638C457.866 457.693 457.766 455.707 456.937 453.68C456.077 451.621 454.455 449.424 452.073 447.09C449.756 444.82 447.577 443.323 445.534 442.601C443.491 441.814 441.52 441.769 439.621 442.467C437.721 443.1 435.812 444.395 433.893 446.353L433.366 446.891C431.383 448.914 430.079 450.931 429.453 452.94C428.794 454.917 428.847 456.92 429.611 458.947C430.406 460.942 431.946 463.059 434.23 465.298C436.612 467.632 438.857 469.192 440.965 469.979C443.072 470.7 445.091 470.728 447.023 470.063C448.987 469.364 450.944 468.02 452.895 466.03Z" fill="black"/>
<path d="M481.595 444.116C481.768 443.847 481.658 443.424 481.267 442.849C480.9 442.235 480.101 441.534 478.869 440.747L451.153 423.031C449.922 422.243 448.969 421.824 448.297 421.774C447.585 421.699 447.124 421.784 446.914 422.029L459.02 403.09C461.111 399.818 463.278 397.488 465.52 396.102C467.748 394.652 470.055 394.012 472.441 394.182C474.788 394.327 477.174 395.174 479.599 396.724C482.063 398.299 483.892 400.146 485.086 402.265C486.242 404.359 486.648 406.734 486.307 409.389C485.951 411.981 484.727 414.913 482.636 418.185L476.989 427.02L484.553 431.855C485.785 432.642 486.756 433.073 487.468 433.148C488.179 433.223 488.62 433.126 488.793 432.857L481.595 444.116ZM472.151 420.592L473.996 417.705C475.448 415.434 476.375 413.56 476.777 412.082C477.204 410.565 477.174 409.299 476.685 408.282C476.197 407.264 475.298 406.337 473.989 405.501C472.719 404.689 471.527 404.306 470.412 404.353C469.322 404.361 468.242 404.864 467.172 405.86C466.087 406.794 464.905 408.261 463.625 410.263L461.411 413.727C460.648 414.921 460.282 415.663 460.313 415.954C460.306 416.22 460.687 416.599 461.457 417.091L469.021 421.926C469.791 422.418 470.314 422.617 470.591 422.523C470.868 422.429 471.388 421.786 472.151 420.592Z" fill="black"/>
</svg>
