<svg width="677" height="643" viewBox="0 0 677 643" fill="none" xmlns="http://www.w3.org/2000/svg">
<path d="M547.381 505.397C542.079 511.197 536.858 514.131 531.72 514.2C526.578 514.204 521.512 511.925 516.522 507.362C513.318 504.434 511.079 501.365 509.803 498.156C508.525 494.883 508.356 491.479 509.297 487.944C510.235 484.345 512.477 480.607 516.022 476.729L517.455 475.161C520.939 471.351 524.383 468.836 527.788 467.616C531.225 466.362 534.615 466.243 537.959 467.257C541.303 468.271 544.576 470.243 547.779 473.171C552.77 477.733 555.493 482.575 555.949 487.696C556.371 492.787 553.993 498.164 548.814 503.829L547.381 505.397ZM542.229 499.759L542.737 499.202C544.618 497.146 545.822 495.151 546.35 493.22C546.908 491.254 546.739 489.273 545.841 487.276C544.909 485.248 543.213 483.109 540.751 480.859C538.357 478.67 536.127 477.25 534.06 476.599C531.991 475.884 530.019 475.907 528.146 476.67C526.269 477.369 524.406 478.73 522.556 480.753L522.048 481.309C520.137 483.4 518.903 485.46 518.347 487.49C517.758 489.489 517.88 491.488 518.713 493.488C519.577 495.455 521.19 497.517 523.55 499.674C526.012 501.925 528.309 503.406 530.443 504.119C532.574 504.767 534.593 504.725 536.501 503.993C538.439 503.227 540.348 501.816 542.229 499.759Z" fill="#050E38"/>
<path d="M577.49 468.95C577.653 468.674 577.529 468.256 577.118 467.694C576.73 467.094 575.907 466.421 574.648 465.677L546.335 448.933C545.076 448.188 544.11 447.803 543.436 447.776C542.723 447.725 542.265 447.826 542.063 448.078L553.505 428.731C555.482 425.388 557.566 422.985 559.759 421.522C561.935 419.996 564.218 419.276 566.609 419.363C568.96 419.426 571.374 420.19 573.851 421.655C576.368 423.144 578.26 424.926 579.527 427.002C580.754 429.055 581.243 431.414 580.994 434.08C580.728 436.683 579.607 439.656 577.631 442.998L572.293 452.023L580.021 456.593C581.279 457.337 582.265 457.734 582.978 457.785C583.691 457.835 584.13 457.722 584.292 457.447L577.49 468.95ZM567.235 445.767L568.979 442.818C570.351 440.498 571.213 438.592 571.564 437.102C571.938 435.571 571.863 434.306 571.34 433.307C570.816 432.307 569.886 431.412 568.549 430.621C567.251 429.854 566.046 429.513 564.934 429.598C563.846 429.644 562.783 430.184 561.748 431.217C560.696 432.187 559.566 433.695 558.356 435.74L556.263 439.279C555.543 440.498 555.203 441.253 555.244 441.542C555.245 441.809 555.639 442.174 556.426 442.639L564.153 447.209C564.94 447.674 565.47 447.855 565.743 447.751C566.017 447.648 566.514 446.987 567.235 445.767Z" fill="#050E38"/>
<path d="M53.1284 446.752C53.312 447.014 53.7575 447.092 54.4648 446.986C55.1721 446.881 56.1242 446.408 57.3211 445.569L84.2522 426.681C85.4491 425.842 86.1989 425.121 86.5015 424.518C86.8415 423.889 86.9384 423.43 86.7922 423.142L101.509 444.126C103.555 447.043 104.819 449.561 105.3 451.679C105.781 453.797 105.621 455.639 104.822 457.204C104.06 458.743 102.837 460.102 101.154 461.283C99.8072 462.227 98.4959 462.784 97.2197 462.954C96.0072 463.135 94.8899 463.053 93.8679 462.71C92.8458 462.366 91.9546 461.931 91.1944 461.404L91.0821 461.483C92.2262 464.308 92.5017 466.849 91.9086 469.106C91.353 471.337 89.8782 473.292 87.4843 474.971C85.8759 476.099 84.1007 476.87 82.1586 477.284C80.2164 477.697 78.1558 477.384 75.9765 476.346C73.8609 475.319 71.6751 473.196 69.4191 469.98L53.1284 446.752ZM67.8163 454.447L73.7188 462.863C75.214 464.995 76.5757 466.3 77.8038 466.778C79.0955 467.267 80.4333 467.026 81.8173 466.056C83.1264 465.137 83.7822 463.924 83.7846 462.416C83.8244 460.881 83.031 458.954 81.4046 456.635L75.935 448.837C75.148 447.714 74.601 447.094 74.294 446.974C74.0132 446.892 73.4427 447.153 72.5824 447.756L67.9256 451.022C67.1027 451.599 66.682 452.034 66.6635 452.326C66.6713 452.655 67.0556 453.362 67.8163 454.447ZM81.6579 444.823L86.3011 451.443C87.5603 453.239 88.7514 454.301 89.8746 454.629C91.0613 454.969 92.2719 454.706 93.5062 453.84C94.7406 452.974 95.3946 451.957 95.4684 450.79C95.5685 449.659 94.9758 448.178 93.6904 446.345L88.9684 439.612C88.1815 438.49 87.6476 437.888 87.3668 437.806C87.1234 437.697 86.5716 437.945 85.7113 438.548L81.7277 441.342C80.9048 441.919 80.4842 442.354 80.4657 442.646C80.4735 442.975 80.8709 443.701 81.6579 444.823Z" fill="#050E38"/>
<path d="M88.6947 496.751C88.8621 496.907 89.3308 496.905 90.1008 496.748C90.9043 496.621 92.0534 496.223 93.5481 495.554C94.2488 495.269 95.4099 494.758 97.0313 494.019C98.7173 493.278 100.641 492.415 102.803 491.43C105.03 490.443 107.335 489.404 109.719 488.314C112.137 487.255 114.443 486.217 116.636 485.198C118.862 484.211 120.802 483.331 122.454 482.559C124.14 481.818 125.332 481.273 126.031 480.924C127.461 480.257 128.41 479.705 128.879 479.267C129.348 478.83 129.499 478.533 129.331 478.378L140.277 488.545C140.143 488.421 139.875 488.609 139.474 489.108C139.103 489.574 138.622 490.562 138.031 492.071C137.734 492.793 137.262 494.007 136.614 495.711C135.996 497.383 135.261 499.35 134.407 501.612C133.584 503.84 132.716 506.184 131.805 508.642C130.893 511.1 130.011 513.46 129.157 515.722C128.334 517.951 127.615 519.933 127 521.669C126.385 523.405 125.946 524.65 125.683 525.403C125.159 526.974 124.914 528.211 124.947 529.115C124.98 530.019 125.114 530.58 125.348 530.798L113.951 520.211C114.249 520.426 114.7 520.377 115.303 520.064C115.97 519.748 116.685 518.978 117.448 517.754C117.632 517.489 117.77 517.273 117.861 517.108C117.983 516.91 118.134 516.614 118.313 516.219C118.646 515.592 118.821 515.101 118.841 514.745C118.891 514.355 118.731 513.957 118.36 513.55C118.023 513.175 117.419 512.583 116.549 511.774L107.913 503.752C107.009 502.913 106.308 502.325 105.811 501.987C105.345 501.617 104.935 501.454 104.581 501.499C104.227 501.545 103.782 501.755 103.246 502.13C103.057 502.267 102.805 502.438 102.489 502.643C102.207 502.88 101.972 503.066 101.783 503.203C100.553 504.056 99.7713 504.764 99.4364 505.326C99.135 505.919 99.0692 506.325 99.2389 506.545L88.6947 496.751ZM114.349 499.442L120.223 504.899C121.194 505.8 121.807 506.214 122.063 506.14C122.319 506.066 122.611 505.651 122.938 504.896C123.498 503.42 124.074 501.928 124.665 500.419C125.287 498.877 125.894 497.384 126.487 495.939C127.114 494.526 127.697 493.228 128.235 492.044C128.838 490.858 129.334 489.854 129.724 489.031L129.624 488.938C128.005 489.741 126.307 490.596 124.53 491.502C122.753 492.408 121.103 493.245 119.579 494.012C118.056 494.779 116.803 495.424 115.82 495.945C114.868 496.433 114.392 496.676 114.392 496.676C113.66 496.994 113.219 497.301 113.068 497.598C112.918 497.894 113.344 498.509 114.349 499.442Z" fill="#050E38"/>
<path d="M140.655 543.313C140.93 543.476 141.348 543.353 141.91 542.943C142.512 542.556 143.186 541.734 143.932 540.477L160.728 512.194C161.474 510.937 161.861 509.971 161.89 509.297C161.941 508.584 161.841 508.126 161.59 507.924L180.917 519.4C184.373 521.453 186.867 523.518 188.396 525.595C189.965 527.696 190.7 529.859 190.6 532.084C190.563 534.294 189.81 536.636 188.34 539.111C187.291 540.879 186.024 542.252 184.539 543.23C183.094 544.232 181.546 544.827 179.893 545.014C178.241 545.202 176.591 545.073 174.944 544.626L174.839 544.802C176.037 546.364 176.952 548.581 177.584 551.454C178.239 554.287 178.59 557.232 178.635 560.287C178.675 562.277 178.882 563.808 179.255 564.88C179.628 565.951 180 566.623 180.369 566.896L165.52 558.079C166.015 558.319 166.54 558.285 167.095 557.977C167.712 557.653 168.104 556.77 168.27 555.328C168.565 552.952 168.531 550.727 168.169 548.652C167.807 546.578 167.05 544.72 165.899 543.08C164.81 541.424 163.264 540.001 161.26 538.812L160.612 538.427C159.394 537.704 158.629 537.382 158.316 537.462C158.003 537.541 157.613 537.974 157.147 538.76L152.948 545.831C152.201 547.088 151.802 548.073 151.751 548.786C151.699 549.499 151.811 549.938 152.086 550.101L140.655 543.313ZM164.146 532.475L168.978 535.345C171.453 536.814 173.497 537.443 175.11 537.232C176.746 536.982 178.171 535.835 179.384 533.793C179.92 532.889 180.202 531.967 180.229 531.027C180.256 530.087 179.915 529.14 179.205 528.187C178.535 527.258 177.375 526.304 175.725 525.324L170.304 522.105C169.087 521.382 168.345 521.021 168.078 521.022C167.812 521.023 167.445 521.417 166.979 522.202L162.675 529.45C162.208 530.236 162.027 530.765 162.13 531.039C162.256 531.273 162.928 531.752 164.146 532.475Z" fill="#050E38"/>
<path d="M198.12 575.935C198.423 576.037 198.828 575.836 199.335 575.333C199.843 574.829 200.33 573.884 200.797 572.499L211.308 541.329C211.775 539.944 211.952 538.918 211.838 538.253C211.74 537.545 211.546 537.118 211.258 536.973L235.544 545.162C238.921 546.301 241.43 547.581 243.072 549.003C244.714 550.424 245.677 552.002 245.96 553.737C246.257 555.428 246.078 557.248 245.421 559.196C244.895 560.755 244.169 561.98 243.241 562.873C242.371 563.736 241.423 564.333 240.396 564.661C239.369 564.99 238.393 565.167 237.468 565.193L237.425 565.323C240.019 566.921 241.747 568.805 242.606 570.975C243.48 573.102 243.45 575.551 242.515 578.322C241.888 580.183 240.914 581.856 239.594 583.339C238.274 584.823 236.429 585.791 234.058 586.246C231.745 586.671 228.727 586.256 225.004 585L198.12 575.935ZM214.512 573.435L224.252 576.719C226.72 577.552 228.59 577.796 229.862 577.454C231.193 577.083 232.128 576.097 232.668 574.495C233.179 572.98 232.989 571.614 232.097 570.397C231.221 569.137 229.44 568.055 226.756 567.15L217.73 564.106C216.431 563.668 215.623 563.492 215.304 563.577C215.03 563.678 214.724 564.225 214.389 565.221L212.571 570.611C212.25 571.563 212.168 572.163 212.326 572.409C212.528 572.67 213.256 573.012 214.512 573.435ZM219.963 557.482L227.626 560.066C229.704 560.767 231.292 560.917 232.392 560.516C233.549 560.087 234.369 559.158 234.85 557.729C235.332 556.3 235.257 555.094 234.625 554.109C234.036 553.139 232.68 552.297 230.559 551.581L222.767 548.954C221.468 548.516 220.681 548.347 220.406 548.447C220.146 548.504 219.848 549.03 219.512 550.026L217.958 554.636C217.637 555.589 217.555 556.188 217.713 556.434C217.914 556.695 218.664 557.044 219.963 557.482Z" fill="#050E38"/>
<path d="M259.982 595.456C260.299 595.494 260.655 595.214 261.048 594.617C261.441 594.02 261.724 592.995 261.898 591.544L265.792 558.881C265.965 557.429 265.928 556.39 265.681 555.762C265.439 555.089 265.162 554.711 264.85 554.628L304.59 559.366L304.347 561.408L304.766 569.464C303.692 568.829 301.758 568.07 298.965 567.184C296.177 566.254 292.764 565.548 288.727 565.066L278.656 563.866C277.295 563.703 276.465 563.719 276.166 563.914C275.917 564.068 275.736 564.622 275.623 565.574L275.022 570.61C274.903 571.608 274.946 572.211 275.151 572.42C275.402 572.633 276.185 572.819 277.501 572.976L287.299 574.144C289.931 574.458 292.056 574.573 293.677 574.491C295.348 574.368 296.451 574.177 296.988 573.919C296.704 574.76 296.381 575.733 296.019 576.84C295.657 577.947 295.346 579.014 295.085 580.042C294.825 581.069 294.654 581.923 294.573 582.603L276.608 580.461C275.292 580.304 274.488 580.3 274.194 580.449C273.951 580.558 273.767 581.134 273.643 582.178L273.042 587.213C272.918 588.257 272.958 588.883 273.163 589.091C273.369 589.3 274.152 589.485 275.513 589.647L293.885 591.838C296.517 592.152 298.661 592.109 300.319 591.708C302.028 591.268 303.167 590.783 303.737 590.252L301.402 598.256L301.15 600.365L259.982 595.456Z" fill="#050E38"/>
<path d="M323.286 601.906C323.605 601.878 323.872 601.532 324.087 600.871C324.348 600.205 324.413 599.144 324.282 597.688L321.329 564.927C321.197 563.471 320.946 562.461 320.574 561.898C320.198 561.29 319.849 560.977 319.526 560.961L341.913 558.943C345.917 558.582 349.148 558.795 351.604 559.583C354.106 560.366 355.968 561.689 357.191 563.551C358.455 565.364 359.217 567.704 359.475 570.57C359.66 572.618 359.437 574.473 358.807 576.135C358.223 577.793 357.316 579.182 356.086 580.302C354.857 581.422 353.444 582.284 351.847 582.887L351.865 583.091C353.751 583.655 355.791 584.916 357.986 586.874C360.177 588.787 362.186 590.968 364.012 593.418C365.21 595.008 366.275 596.127 367.205 596.777C368.135 597.427 368.829 597.755 369.289 597.759L352.089 599.31C352.631 599.215 353.036 598.88 353.306 598.305C353.616 597.681 353.417 596.736 352.706 595.47C351.554 593.372 350.223 591.588 348.714 590.118C347.206 588.649 345.505 587.587 343.611 586.932C341.758 586.227 339.672 585.98 337.351 586.189L336.6 586.256C335.19 586.384 334.381 586.571 334.174 586.819C333.967 587.067 333.904 587.646 333.986 588.556L334.725 596.747C334.856 598.203 335.11 599.235 335.486 599.843C335.862 600.451 336.209 600.741 336.527 600.713L323.286 601.906ZM335.979 579.363L341.575 578.858C344.442 578.6 346.467 577.913 347.651 576.797C348.831 575.635 349.314 573.872 349.101 571.506C349.006 570.459 348.695 569.547 348.166 568.769C347.637 567.991 346.806 567.423 345.673 567.067C344.586 566.706 343.086 566.612 341.175 566.784L334.896 567.35C333.485 567.478 332.672 567.62 332.457 567.777C332.242 567.934 332.175 568.467 332.257 569.377L333.014 577.772C333.096 578.682 333.259 579.218 333.503 579.38C333.743 579.496 334.568 579.49 335.979 579.363Z" fill="#050E38"/>
<path d="M435.658 580.134C431.045 582.011 426.876 583.461 423.149 584.484C419.422 585.507 416.69 586.126 414.952 586.34L414.177 584.435L409.627 576.89C410.707 577.24 412.332 577.417 414.504 577.421C416.676 577.426 419.334 577.109 422.478 576.471C425.604 575.79 429.093 574.667 432.944 573.1C435.314 572.136 437.073 571.247 438.222 570.434C439.354 569.579 440.032 568.761 440.256 567.979C440.481 567.197 440.429 566.404 440.102 565.6C439.689 564.585 439.032 563.94 438.131 563.665C437.213 563.348 435.788 563.361 433.855 563.703C431.965 564.028 429.326 564.633 425.938 565.519C421.88 566.578 418.38 567.188 415.437 567.35C412.494 567.511 410.061 567.047 408.137 565.955C406.196 564.821 404.675 562.9 403.573 560.192C402.677 557.991 402.465 555.833 402.936 553.718C403.407 551.603 404.723 549.563 406.883 547.599C409.043 545.635 412.218 543.801 416.408 542.096C420.809 540.305 424.661 538.984 427.965 538.133C431.268 537.282 433.599 536.827 434.956 536.769L435.731 538.673L440.476 544.88C439.194 544.761 437.438 544.809 435.208 545.026C432.978 545.243 430.474 545.695 427.695 546.381C424.899 547.026 421.978 547.968 418.931 549.208C417.027 549.982 415.615 550.754 414.695 551.523C413.757 552.25 413.176 553.004 412.952 553.786C412.752 554.508 412.825 555.293 413.169 556.139C413.583 557.155 414.299 557.825 415.319 558.15C416.364 558.415 417.853 558.377 419.785 558.034C421.718 557.692 424.255 557.079 427.397 556.195C432.216 554.826 436.081 554.141 438.991 554.141C441.901 554.141 444.149 554.755 445.734 555.984C447.344 557.154 448.606 558.86 449.518 561.103C450.31 563.05 450.648 564.91 450.531 566.684C450.397 568.415 449.758 570.056 448.613 571.607C447.511 573.141 445.87 574.623 443.689 576.052C441.551 577.465 438.874 578.825 435.658 580.134Z" fill="#050E38"/>
<path d="M474.53 562.595C474.793 562.413 474.874 561.969 474.773 561.261C474.672 560.553 474.205 559.598 473.374 558.395L454.658 531.344C453.826 530.142 453.11 529.388 452.509 529.081C451.882 528.737 451.424 528.637 451.135 528.782L462.181 521.139C461.918 521.321 461.837 521.766 461.938 522.474C462.039 523.182 462.518 524.156 463.376 525.396L469.341 534.019C469.913 534.845 470.345 535.269 470.637 535.289C470.966 535.283 471.695 534.89 472.822 534.111L487.305 524.09C488.432 523.31 489.051 522.799 489.161 522.556C489.245 522.276 488.988 521.704 488.39 520.84L482.385 512.161C481.553 510.959 480.837 510.204 480.236 509.898C479.609 509.554 479.151 509.454 478.862 509.598L489.908 501.956C489.645 502.138 489.564 502.583 489.665 503.291C489.766 503.999 490.245 504.973 491.103 506.213L509.78 533.207C510.611 534.409 511.341 535.183 511.968 535.527C512.595 535.871 513.04 535.952 513.303 535.77L502.257 543.412C502.52 543.23 502.601 542.785 502.5 542.077C502.399 541.369 501.933 540.414 501.101 539.212L495.018 530.42C494.42 529.556 493.97 529.146 493.666 529.189C493.375 529.169 492.684 529.535 491.594 530.289L477.111 540.31C475.984 541.09 475.359 541.633 475.238 541.939C475.154 542.219 475.398 542.773 475.97 543.599L482.052 552.391C482.884 553.593 483.614 554.366 484.24 554.71C484.867 555.054 485.312 555.135 485.575 554.953L474.53 562.595Z" fill="#050E38"/>
<path d="M303.035 435.608L304.232 436.391C307.443 438.524 311.332 439.208 315.217 438.339C319.564 437.369 323.449 434.507 325.88 430.492C363.944 367.665 390.867 299.354 405.903 227.453C405.903 227.452 405.903 227.452 405.903 227.452C406.865 222.859 405.975 218.117 403.461 214.441C401.214 211.154 397.904 209 394.141 208.375L392.647 208.117C389.618 207.614 386.638 208.038 383.986 209.19C379.345 211.207 375.705 215.46 374.561 220.903C360.271 289.246 334.679 354.18 298.497 413.9C293.974 421.378 295.966 430.915 303.035 435.608V435.608ZM384.026 226.087C384.585 224.667 385.709 223.499 387.118 222.887C388.519 222.278 390.139 222.253 391.567 222.81C392.987 223.37 394.159 224.5 394.768 225.902C395.377 227.303 395.405 228.931 394.844 230.351C394.276 231.775 393.154 232.943 391.753 233.552C390.344 234.164 388.724 234.189 387.303 233.629C385.883 233.069 384.712 231.938 384.103 230.537C383.494 229.135 383.469 227.515 384.026 226.087ZM310.76 413.681C311.325 412.248 312.451 411.089 313.852 410.48C315.261 409.868 316.878 409.835 318.302 410.403C319.73 410.96 320.89 412.086 321.502 413.495C322.111 414.897 322.147 416.52 321.579 417.944C321.019 419.365 319.896 420.533 318.487 421.145C317.086 421.754 315.466 421.779 314.037 421.222C312.614 420.654 311.446 419.532 310.837 418.13C310.225 416.721 310.201 415.102 310.76 413.681Z" fill="#050E38"/>
<path d="M284.759 428.905C283.179 422.064 284.595 414.416 288.55 407.878C294.81 397.545 300.74 387.05 306.35 376.409L281.597 319.453L288.259 302.553C288.825 301.117 288.797 299.517 288.183 298.103L259.188 231.386C253.953 219.342 239.896 213.802 227.852 219.036L220.843 222.082C208.799 227.316 203.259 241.374 208.493 253.418L284.759 428.905V428.905Z" fill="#050E38"/>
<path d="M63.2 368.8C54.0267 368.8 47.3867 366.613 43.28 362.24C39.2267 357.813 37.2 351.653 37.2 343.76C37.2 338.693 38.08 334.347 39.84 330.72C41.6533 327.04 44.4533 324.213 48.24 322.24C52.08 320.213 57.0667 319.2 63.2 319.2H65.68C71.7067 319.2 76.5867 320.187 80.32 322.16C84.1067 324.133 86.88 326.96 88.64 330.64C90.4 334.32 91.28 338.693 91.28 343.76C91.28 351.653 89.2533 357.813 85.2 362.24C81.1467 366.613 74.64 368.8 65.68 368.8H63.2ZM64 359.92H64.88C68.1333 359.92 70.8 359.387 72.88 358.32C75.0133 357.253 76.5867 355.547 77.6 353.2C78.6133 350.8 79.12 347.653 79.12 343.76C79.12 339.973 78.5867 336.933 77.52 334.64C76.5067 332.293 74.9333 330.613 72.8 329.6C70.72 328.533 68.08 328 64.88 328H64C60.6933 328 57.9467 328.56 55.76 329.68C53.5733 330.747 51.9467 332.427 50.88 334.72C49.8667 337.013 49.36 340.027 49.36 343.76C49.36 347.653 49.8933 350.8 50.96 353.2C52.08 355.547 53.7067 357.253 55.84 358.32C58.0267 359.387 60.7467 359.92 64 359.92ZM125.109 368.8C115.935 368.8 109.055 366.827 104.469 362.88C99.9354 358.88 97.6688 352.587 97.6688 344C97.6688 339.04 98.6021 334.72 100.469 331.04C102.335 327.307 105.295 324.4 109.349 322.32C113.402 320.24 118.655 319.2 125.109 319.2C130.175 319.2 134.389 319.467 137.749 320C141.109 320.533 143.375 321.067 144.549 321.6V324L146.149 332.8C145.135 332.107 143.615 331.387 141.589 330.64C139.615 329.893 137.242 329.28 134.469 328.8C131.695 328.267 128.629 328 125.269 328C121.589 328 118.602 328.587 116.309 329.76C114.069 330.933 112.415 332.72 111.349 335.12C110.335 337.467 109.829 340.427 109.829 344C109.829 347.573 110.335 350.533 111.349 352.88C112.415 355.227 114.229 356.987 116.789 358.16C119.402 359.333 123.002 359.92 127.589 359.92C132.175 359.92 135.989 359.28 139.029 358C142.122 356.72 144.229 355.493 145.349 354.32V356.72L146.149 364.8C145.242 365.653 143.029 366.533 139.509 367.44C136.042 368.347 131.242 368.8 125.109 368.8ZM149.152 368C149.419 368 149.819 367.627 150.353 366.88C150.939 366.133 151.606 364.88 152.353 363.12C152.726 362.32 153.313 360.96 154.113 359.04C154.966 357.067 155.926 354.8 156.993 352.24C158.113 349.627 159.259 346.907 160.433 344.08C161.659 341.253 162.806 338.533 163.873 335.92C164.993 333.307 165.953 331.013 166.753 329.04C167.606 327.067 168.193 325.653 168.513 324.8C169.206 323.093 169.579 321.867 169.633 321.12C169.686 320.373 169.579 320 169.312 320H186.753C186.539 320 186.459 320.373 186.513 321.12C186.566 321.813 186.939 323.04 187.633 324.8C187.953 325.653 188.513 327.067 189.312 329.04C190.113 330.96 191.046 333.227 192.113 335.84C193.179 338.4 194.299 341.093 195.473 343.92C196.646 346.747 197.766 349.467 198.833 352.08C199.899 354.64 200.859 356.907 201.713 358.88C202.566 360.853 203.179 362.267 203.553 363.12C204.353 364.88 205.126 366.133 205.873 366.88C206.619 367.627 207.179 368 207.553 368H189.393C189.819 367.947 190.166 367.547 190.432 366.8C190.753 366 190.753 364.773 190.432 363.12C190.379 362.747 190.326 362.453 190.273 362.24C190.219 361.973 190.113 361.6 189.953 361.12C189.739 360.32 189.499 359.76 189.233 359.44C188.966 359.067 188.513 358.853 187.873 358.8C187.286 358.747 186.299 358.72 184.913 358.72H171.153C169.713 358.72 168.646 358.773 167.953 358.88C167.259 358.933 166.779 359.12 166.513 359.44C166.246 359.76 166.033 360.293 165.873 361.04C165.819 361.307 165.739 361.653 165.633 362.08C165.579 362.507 165.526 362.853 165.473 363.12C165.099 364.827 164.993 366.053 165.153 366.8C165.366 367.547 165.633 367.947 165.953 368H149.152ZM173.233 349.92H182.593C184.139 349.92 184.993 349.787 185.153 349.52C185.313 349.253 185.233 348.667 184.913 347.76C184.219 346.053 183.526 344.32 182.833 342.56C182.139 340.747 181.473 338.987 180.833 337.28C180.246 335.573 179.713 334 179.233 332.56C178.806 331.067 178.433 329.813 178.113 328.8H177.953C177.206 330.773 176.433 332.853 175.633 335.04C174.833 337.227 174.086 339.253 173.393 341.12C172.699 342.987 172.139 344.533 171.713 345.76C171.286 346.933 171.073 347.52 171.073 347.52C170.699 348.373 170.566 348.987 170.673 349.36C170.779 349.733 171.633 349.92 173.233 349.92Z" fill="#050E38"/>
<path d="M405 368C405.373 368 405.72 367.653 406.04 366.96C406.413 366.213 406.6 364.96 406.6 363.2V324.8C406.6 323.093 406.413 321.867 406.04 321.12C405.72 320.373 405.373 320 405 320H420.44C420.067 320 419.693 320.373 419.32 321.12C418.947 321.813 418.76 323.067 418.76 324.88V363.2C418.76 364.907 418.947 366.133 419.32 366.88C419.693 367.627 420.067 368 420.44 368H405ZM453.638 368.8C444.464 368.8 437.824 366.613 433.718 362.24C429.664 357.813 427.638 351.653 427.638 343.76C427.638 338.693 428.518 334.347 430.278 330.72C432.091 327.04 434.891 324.213 438.678 322.24C442.518 320.213 447.504 319.2 453.638 319.2H456.118C462.144 319.2 467.024 320.187 470.758 322.16C474.544 324.133 477.318 326.96 479.078 330.64C480.838 334.32 481.718 338.693 481.718 343.76C481.718 351.653 479.691 357.813 475.638 362.24C471.584 366.613 465.078 368.8 456.118 368.8H453.638ZM454.438 359.92H455.318C458.571 359.92 461.238 359.387 463.318 358.32C465.451 357.253 467.024 355.547 468.038 353.2C469.051 350.8 469.558 347.653 469.558 343.76C469.558 339.973 469.024 336.933 467.958 334.64C466.944 332.293 465.371 330.613 463.238 329.6C461.158 328.533 458.518 328 455.318 328H454.438C451.131 328 448.384 328.56 446.198 329.68C444.011 330.747 442.384 332.427 441.318 334.72C440.304 337.013 439.798 340.027 439.798 343.76C439.798 347.653 440.331 350.8 441.398 353.2C442.518 355.547 444.144 357.253 446.278 358.32C448.464 359.387 451.184 359.92 454.438 359.92ZM513.946 368.8C508.56 368.8 504.133 367.947 500.666 366.24C497.2 364.533 494.64 362.08 492.986 358.88C491.333 355.627 490.506 351.76 490.506 347.28V324.72C490.506 323.013 490.32 321.813 489.946 321.12C489.626 320.373 489.28 320 488.906 320H504.266C503.893 320.053 503.52 320.427 503.146 321.12C502.826 321.813 502.666 323.013 502.666 324.72V347.12C502.666 350.533 503.146 353.173 504.106 355.04C505.066 356.907 506.4 358.187 508.106 358.88C509.813 359.573 511.786 359.92 514.026 359.92H514.906C516.666 359.92 518.213 359.733 519.546 359.36C520.933 358.987 522.08 358.347 522.986 357.44C523.946 356.533 524.666 355.253 525.146 353.6C525.68 351.893 525.946 349.733 525.946 347.12V324.72C525.946 323.013 525.76 321.813 525.386 321.12C525.066 320.373 524.72 320 524.346 320H539.706C539.333 320.053 538.96 320.453 538.586 321.2C538.266 321.893 538.106 323.093 538.106 324.8V347.28C538.106 351.76 537.253 355.627 535.546 358.88C533.893 362.08 531.333 364.533 527.866 366.24C524.453 367.947 520.08 368.8 514.746 368.8H513.946ZM573.654 368.8C567.841 368.8 562.694 368.533 558.214 368C553.734 367.467 550.508 366.933 548.534 366.4V364L546.934 353.84C547.948 354.693 549.628 355.6 551.974 356.56C554.321 357.52 557.334 358.347 561.014 359.04C564.694 359.68 568.961 360 573.814 360C576.801 360 579.094 359.813 580.694 359.44C582.294 359.013 583.388 358.427 583.974 357.68C584.561 356.933 584.854 356.053 584.854 355.04C584.854 353.76 584.428 352.773 583.574 352.08C582.721 351.333 581.174 350.72 578.934 350.24C576.748 349.76 573.628 349.253 569.574 348.72C564.721 348.08 560.668 347.2 557.414 346.08C554.161 344.96 551.734 343.387 550.134 341.36C548.534 339.28 547.734 336.533 547.734 333.12C547.734 330.347 548.454 327.92 549.894 325.84C551.334 323.76 553.654 322.133 556.854 320.96C560.054 319.787 564.294 319.2 569.574 319.2C575.121 319.2 579.868 319.467 583.814 320C587.761 320.533 590.481 321.067 591.974 321.6V324L594.374 332.8C593.041 332.107 591.121 331.387 588.614 330.64C586.108 329.893 583.201 329.28 579.894 328.8C576.588 328.267 573.014 328 569.174 328C566.774 328 564.908 328.213 563.574 328.64C562.241 329.013 561.281 329.573 560.694 330.32C560.161 331.013 559.894 331.893 559.894 332.96C559.894 334.24 560.374 335.28 561.334 336.08C562.348 336.827 563.974 337.44 566.214 337.92C568.454 338.4 571.468 338.853 575.254 339.28C581.068 339.92 585.548 340.88 588.694 342.16C591.841 343.44 594.001 345.093 595.174 347.12C596.401 349.093 597.014 351.493 597.014 354.32C597.014 356.773 596.561 358.933 595.654 360.8C594.748 362.613 593.334 364.107 591.414 365.28C589.548 366.453 587.121 367.333 584.134 367.92C581.201 368.507 577.708 368.8 573.654 368.8ZM605.019 329.6L603.419 326.8C604.485 326.373 605.552 325.627 606.619 324.56C607.685 323.493 608.219 322.213 608.219 320.72C608.219 319.227 607.845 318.213 607.099 317.68C606.352 317.093 605.339 316.8 604.059 316.8V314.8C604.059 313.253 604.619 312.133 605.739 311.44C606.859 310.747 608.219 310.4 609.819 310.4C612.379 310.4 614.219 311.227 615.339 312.88C616.459 314.533 617.019 316.373 617.019 318.4C617.019 320.587 616.379 322.507 615.099 324.16C613.819 325.813 612.245 327.12 610.379 328.08C608.565 328.987 606.779 329.493 605.019 329.6Z" fill="#050E38"/>
<path d="M59.961 255.006C60.0499 254.751 59.8775 254.426 59.4438 254.029C59.0228 253.597 58.2296 253.177 57.0642 252.771L30.842 243.628C29.6766 243.222 28.8127 243.064 28.2504 243.153C27.6516 243.231 27.2896 243.39 27.1643 243.633L33.4117 225.714C34.5292 222.509 35.8186 220.099 37.2802 218.485C38.7544 216.834 40.4206 215.863 42.2787 215.571C44.1131 215.23 46.1775 215.46 48.4719 216.26C50.1108 216.831 51.4596 217.649 52.5185 218.713C53.59 219.74 54.3422 220.921 54.7752 222.257C55.2082 223.592 55.3782 224.979 55.2853 226.417L55.4492 226.474C56.5398 225.221 58.2204 224.091 60.4908 223.085C62.7248 222.067 65.102 221.282 67.6224 220.731C69.262 220.364 70.4937 219.935 71.3177 219.446C72.1417 218.958 72.6354 218.537 72.7988 218.186L67.9989 231.953C68.1149 231.503 67.9988 231.074 67.6506 230.667C67.2787 230.211 66.4822 230.035 65.2609 230.14C63.2461 230.295 61.4109 230.697 59.7553 231.345C58.0997 231.994 56.6901 232.932 55.5266 234.16C54.3394 235.339 53.422 236.857 52.7744 238.715L52.5649 239.316C52.1713 240.445 52.0338 241.132 52.1524 241.378C52.271 241.623 52.6945 241.873 53.4229 242.127L59.9784 244.412C61.1438 244.819 62.0259 244.983 62.6247 244.906C63.2235 244.829 63.5673 244.663 63.6562 244.408L59.961 255.006ZM47.0473 237.392L48.6092 232.912C49.4092 230.618 49.5863 228.821 49.1406 227.522C48.6585 226.21 47.4706 225.224 45.5767 224.564C44.7391 224.272 43.929 224.193 43.1465 224.329C42.3639 224.465 41.6382 224.906 40.9692 225.653C40.313 226.364 39.7182 227.484 39.1849 229.014L37.4325 234.04C37.0389 235.169 36.865 235.843 36.9107 236.063C36.9565 236.284 37.3436 236.521 38.072 236.775L44.7914 239.117C45.5198 239.371 45.9886 239.433 46.1977 239.301C46.3705 239.157 46.6537 238.521 47.0473 237.392Z" fill="#050E38"/>
<path d="M74.556 214.136C74.6501 213.968 74.5556 213.584 74.2726 212.983C74.0083 212.35 73.4525 211.486 72.6051 210.394C72.2319 209.876 71.5806 209.026 70.651 207.843C69.7066 206.608 68.6147 205.202 67.3753 203.625C66.1211 201.996 64.8089 200.312 63.4388 198.574C62.0876 196.802 60.7754 195.118 59.5023 193.522C58.2481 191.893 57.1394 190.477 56.1761 189.276C55.2317 188.041 54.5467 187.172 54.121 186.669C53.2885 185.629 52.646 184.96 52.1935 184.663C51.741 184.366 51.4677 184.301 51.3736 184.469L57.5291 173.461C57.4538 173.596 57.6612 173.778 58.1513 174.008C58.6078 174.219 59.5138 174.416 60.8695 174.6C61.521 174.699 62.6108 174.844 64.1387 175.036C65.633 175.209 67.3932 175.42 69.4192 175.669C71.4116 175.899 73.5069 176.143 75.7053 176.4C77.9036 176.657 80.0158 176.91 82.0418 177.159C84.0342 177.389 85.8038 177.583 87.3505 177.741C88.8973 177.899 90.0059 178.011 90.6763 178.076C92.0696 178.192 93.1336 178.147 93.8685 177.939C94.6033 177.731 95.0366 177.509 95.1684 177.274L88.7588 188.736C88.8757 188.448 88.7456 188.088 88.3684 187.656C87.9764 187.172 87.2021 186.739 86.0455 186.358C85.7911 186.26 85.5871 186.19 85.4336 186.148C85.2465 186.088 84.9732 186.023 84.6137 185.955C84.0335 185.807 83.5953 185.761 83.2992 185.816C82.9694 185.853 82.6747 186.064 82.4152 186.449C82.1744 186.8 81.8094 187.414 81.3199 188.289L76.4633 196.974C75.9551 197.883 75.6123 198.575 75.4349 199.051C75.2238 199.507 75.1722 199.876 75.2801 200.157C75.388 200.438 75.6493 200.761 76.0641 201.126C76.2136 201.254 76.4042 201.427 76.6359 201.644C76.8864 201.829 77.0864 201.985 77.2359 202.113C78.1814 202.951 78.918 203.451 79.4458 203.613C79.9924 203.742 80.339 203.715 80.4856 203.532L74.556 214.136ZM71.6429 192.555L74.9465 186.647C75.4924 185.671 75.7094 185.085 75.5976 184.89C75.4857 184.695 75.0872 184.539 74.4019 184.421C73.08 184.256 71.7411 184.082 70.3855 183.898C68.9962 183.696 67.65 183.495 66.3468 183.297C65.0625 183.065 63.8812 182.846 62.8028 182.641C61.7096 182.383 60.7868 182.176 60.0342 182.021L59.9777 182.122C60.9598 183.29 61.9997 184.512 63.0976 185.789C64.1955 187.065 65.2112 188.252 66.1447 189.348C67.0783 190.445 67.8569 191.344 68.4805 192.047C69.0706 192.73 69.3656 193.072 69.3656 193.072C69.7724 193.609 70.1125 193.909 70.3858 193.974C70.6591 194.038 71.0781 193.565 71.6429 192.555Z" fill="#050E38"/>
<path d="M98.581 172.416C98.4554 172.265 98.2798 171.899 98.0543 171.32C97.7987 170.716 97.5297 169.853 97.2471 168.731C96.9531 167.5 96.5734 165.977 96.1081 164.161C95.6671 162.315 95.1818 160.31 94.6523 158.144C94.0927 155.954 93.5275 153.71 92.9566 151.412C92.3857 149.113 91.8355 146.881 91.3059 144.716C90.7707 142.496 90.2676 140.451 89.7966 138.581L89.7066 138.508L82.4623 147.456C80.8848 149.405 79.9297 151.014 79.597 152.283C79.2586 153.497 79.2358 154.323 79.5284 154.758L72.6936 149.225L94.3903 122.425C94.4917 122.606 94.6458 123.029 94.8528 123.693C95.084 124.326 95.3081 125.153 95.525 126.172C96.0132 128.205 96.5013 130.238 96.9895 132.271C97.4776 134.304 97.9657 136.336 98.4539 138.369C98.912 140.378 99.3852 142.398 99.8733 144.431C100.361 146.464 100.85 148.497 101.338 150.53C101.826 152.563 102.314 154.595 102.802 156.628L102.937 156.738L112.693 144.687C114.077 142.978 114.947 141.474 115.304 140.175C115.685 138.846 115.778 137.904 115.582 137.349L120.34 142.689L121.734 143.818L98.581 172.416Z" fill="#050E38"/>
<path d="M142.657 124.981C137.66 129.344 133.002 131.311 128.685 130.881C124.372 130.397 120.338 128.005 116.584 123.705C114.174 120.945 112.586 118.158 111.82 115.346C111.058 112.478 111.239 109.607 112.363 106.731C113.491 103.8 115.726 100.876 119.068 97.9595L120.419 96.78C123.702 93.9137 126.83 92.1303 129.802 91.4297C132.804 90.7039 135.659 90.9248 138.368 92.0926C141.077 93.2603 143.636 95.2244 146.046 97.9847C149.8 102.285 151.626 106.605 151.523 110.944C151.395 115.254 148.89 119.54 144.009 123.802L142.657 124.981ZM138.87 119.763L139.349 119.344C141.122 117.797 142.321 116.238 142.947 114.668C143.602 113.072 143.647 111.394 143.083 109.634C142.494 107.844 141.273 105.889 139.421 103.768C137.621 101.705 135.884 100.303 134.212 99.5604C132.544 98.7639 130.888 98.597 129.244 99.0595C127.603 99.4677 125.911 100.433 124.168 101.955L123.689 102.373C121.887 103.946 120.657 105.557 119.999 107.207C119.315 108.828 119.227 110.517 119.737 112.274C120.276 114.005 121.433 115.888 123.208 117.922C125.06 120.043 126.847 121.504 128.57 122.304C130.296 123.05 131.994 123.206 133.663 122.772C135.362 122.313 137.098 121.31 138.87 119.763Z" fill="#050E38"/>
<path d="M165.709 105.414C165.941 105.275 166.016 104.914 165.936 104.332C165.889 103.73 165.548 102.901 164.912 101.843L150.599 78.0453C149.963 76.9876 149.4 76.3135 148.91 76.023C148.4 75.6994 148.02 75.5906 147.769 75.6967L164.03 65.9162C166.939 64.1668 169.471 63.1389 171.627 62.8323C173.816 62.5058 175.718 62.8246 177.333 63.7887C178.962 64.6997 180.402 66.1964 181.654 68.2787C182.549 69.7661 183.063 71.2571 183.197 72.7519C183.364 74.2268 183.187 75.6161 182.666 76.9197C182.144 78.2234 181.388 79.3983 180.397 80.4445L180.487 80.5932C182.127 80.3269 184.141 80.5331 186.53 81.2119C188.899 81.8576 191.228 82.7745 193.518 83.9627C195.014 84.7285 196.234 85.1869 197.181 85.338C198.127 85.4891 198.775 85.4818 199.125 85.3161L186.631 92.8304C187.008 92.5588 187.193 92.1551 187.186 91.6194C187.192 91.0306 186.692 90.3862 185.686 89.6862C184.037 88.5171 182.369 87.6524 180.682 87.0919C178.995 86.5315 177.311 86.3513 175.631 86.5516C173.964 86.6989 172.288 87.2794 170.603 88.2933L170.057 88.6213C169.033 89.2375 168.487 89.678 168.421 89.9426C168.356 90.2073 168.521 90.6702 168.919 91.3312L172.497 97.2806C173.133 98.3383 173.706 99.0289 174.216 99.3525C174.726 99.6761 175.096 99.7683 175.328 99.6291L165.709 105.414ZM167.046 83.6139L171.111 81.1687C173.193 79.9163 174.478 78.6483 174.967 77.3645C175.435 76.0477 175.152 74.5299 174.118 72.8112C173.661 72.051 173.088 71.4728 172.4 71.0767C171.712 70.6805 170.871 70.5557 169.879 70.7023C168.92 70.829 167.747 71.3098 166.359 72.1447L161.797 74.8881C160.773 75.5043 160.208 75.9117 160.102 76.1103C159.996 76.3088 160.142 76.7386 160.54 77.3997L164.208 83.4978C164.605 84.1589 164.926 84.5058 165.171 84.5386C165.396 84.5384 166.021 84.2301 167.046 83.6139Z" fill="#050E38"/>
<path d="M223.203 74.966C223.461 74.8859 223.639 74.548 223.736 73.9523C223.834 73.3565 223.7 72.4693 223.334 71.2906L215.1 44.769C214.734 43.5903 214.348 42.8015 213.941 42.4027C213.523 41.9671 213.18 41.7709 212.911 41.8141L245.178 31.7961L245.693 33.4537L248.788 39.52C247.741 39.4007 245.989 39.4803 243.531 39.7587C241.062 40.0003 238.188 40.6301 234.91 41.6479L226.732 44.1867C225.627 44.5297 224.993 44.8277 224.829 45.0805C224.69 45.285 224.741 45.774 224.981 46.5476L226.251 50.6363C226.502 51.4467 226.743 51.897 226.973 51.9871C227.24 52.0658 227.907 51.9394 228.976 51.6077L236.932 49.1376C239.068 48.4743 240.747 47.832 241.968 47.2107C243.214 46.5412 243.999 46.0146 244.324 45.6309C244.394 46.3765 244.48 47.2384 244.582 48.2164C244.684 49.1945 244.811 50.1243 244.963 51.0058C245.116 51.8874 245.278 52.6044 245.449 53.1569L230.863 57.6856C229.794 58.0172 229.173 58.291 228.997 58.507C228.847 58.6747 228.904 59.1821 229.167 60.0293L230.436 64.1181C230.699 64.9653 230.946 65.434 231.176 65.5241C231.406 65.6143 232.073 65.4878 233.178 65.1448L248.097 60.5132C250.233 59.8499 251.872 59.0787 253.012 58.1996C254.178 57.2722 254.889 56.5061 255.146 55.9015L256.099 62.8749L256.631 64.5878L223.203 74.966Z" fill="#050E38"/>
<path d="M266.822 62.2579C267.09 62.2233 267.323 61.921 267.521 61.3509C267.72 60.7807 267.74 59.8837 267.582 58.6596L264.024 31.1182C263.866 29.8942 263.62 29.0508 263.288 28.5881C262.951 28.0872 262.647 27.8349 262.374 27.8312L280.391 25.5035C283.757 25.0686 286.629 25.028 289.009 25.3818C291.388 25.7355 293.34 26.3972 294.865 27.3669C296.429 28.3316 297.67 29.5129 298.59 30.9108C299.504 32.2705 300.183 33.7579 300.625 35.3731C301.105 36.9833 301.454 38.63 301.671 40.313C301.869 41.8431 301.94 43.4479 301.885 45.1273C301.863 46.7635 301.566 48.377 300.994 49.9677C300.455 51.5151 299.554 52.9732 298.292 54.3419C297.063 55.6673 295.346 56.8226 293.14 57.8077C290.972 58.7878 288.205 59.4953 284.838 59.9302L266.822 62.2579ZM278.335 54.2952L280.688 53.9912C283.977 53.5662 286.582 52.9574 288.502 52.1649C290.417 51.3341 291.737 50.1135 292.462 48.5031C293.188 46.8927 293.368 44.6721 293.002 41.8415L292.868 40.8087C292.483 37.825 291.778 35.6799 290.754 34.3733C289.724 33.0285 288.185 32.255 286.137 32.053C284.089 31.851 281.343 31.9724 277.9 32.4171L275.548 32.7211C274.439 32.8644 273.779 33.0274 273.569 33.2101C273.393 33.3495 273.357 33.8209 273.46 34.6242L275.818 52.8704C275.926 53.7119 276.086 54.1968 276.297 54.3251C276.547 54.4485 277.226 54.4385 278.335 54.2952Z" fill="#050E38"/>
<path d="M330.282 58.4355C325.043 58.1852 320.97 56.5427 318.064 53.5079C315.199 50.4364 313.911 45.8764 314.2 39.8278C314.369 36.2834 315.193 33.195 316.67 30.5626C318.149 27.8917 320.388 25.8749 323.388 24.5122C326.389 23.111 330.221 22.5217 334.883 22.7444C338.543 22.9192 341.558 23.2562 343.928 23.7556C346.337 24.2568 347.975 24.7211 348.843 25.1487L348.76 26.8824L349.612 33.2944C348.609 32.4742 346.815 31.6163 344.232 30.7206C341.649 29.825 338.47 29.287 334.695 29.1067C332.113 28.9834 329.973 29.3252 328.274 30.1322C326.577 30.9007 325.302 32.1333 324.449 33.8302C323.596 35.5271 323.107 37.6661 322.984 40.2473C322.851 43.0212 323.091 45.2723 323.704 47.0005C324.318 48.6903 325.379 49.9379 326.885 50.7435C328.391 51.5491 330.415 52.0126 332.958 52.1341C334.884 52.2261 336.454 52.108 337.666 51.7798C338.881 51.413 339.794 50.8967 340.405 50.2308C341.017 49.5264 341.345 48.7312 341.387 47.8451L341.432 46.9205C341.474 46.0344 341.421 45.5299 341.272 45.4069C341.164 45.2473 340.667 45.1463 339.781 45.104L337.931 45.0157C336.622 44.9531 335.498 45.0346 334.56 45.2601C333.623 45.4857 332.955 45.7241 332.557 45.9753L333.408 40.2818L333.491 38.5482L351.694 39.4176C351.423 39.4432 351.139 39.7193 350.844 40.2458C350.589 40.7356 350.432 41.5969 350.373 42.8297L349.777 55.3121C349.718 56.5449 349.791 57.4366 349.997 57.987C350.24 58.5392 350.497 58.8218 350.767 58.8346L340.885 58.3627L340.921 57.6114L341.114 55.9989L341.004 55.8778C340.716 56.2501 340.155 56.6674 339.322 57.1296C338.491 57.5533 337.335 57.9035 335.855 58.1804C334.413 58.459 332.555 58.544 330.282 58.4355Z" fill="#050E38"/>
<path d="M361.266 60.3054C361.529 60.3644 361.852 60.1599 362.233 59.692C362.615 59.224 362.94 58.3878 363.21 57.1834L369.277 30.0841C369.547 28.8797 369.605 28.0033 369.451 27.455C369.305 26.8691 369.105 26.5278 368.85 26.4312L401.821 33.8133L401.442 35.507L401.105 42.3088C400.256 41.6841 398.697 40.8805 396.427 39.8979C394.165 38.8777 391.36 37.9926 388.01 37.2426L379.654 35.3718C378.525 35.119 377.827 35.0614 377.559 35.1991C377.337 35.3075 377.137 35.7569 376.96 36.5473L376.025 40.7251C375.84 41.5531 375.824 42.0635 375.979 42.2562C376.171 42.4573 376.813 42.68 377.904 42.9244L386.034 44.7447C388.217 45.2334 389.992 45.5124 391.36 45.5815C392.774 45.6214 393.718 45.556 394.191 45.3852C393.88 46.0666 393.525 46.8567 393.126 47.7556C392.727 48.6544 392.375 49.524 392.068 50.3644C391.761 51.2048 391.545 51.9072 391.418 52.4718L376.514 49.1347C375.422 48.8903 374.747 48.8181 374.487 48.9181C374.274 48.9889 374.07 49.4571 373.876 50.3228L372.941 54.5006C372.747 55.3663 372.727 55.8955 372.882 56.0881C373.036 56.2808 373.678 56.5036 374.807 56.7564L390.05 60.1693C392.233 60.6581 394.038 60.8053 395.465 60.611C396.938 60.3874 397.936 60.0773 398.46 59.6807L395.814 66.2028L395.422 67.9529L361.266 60.3054Z" fill="#050E38"/>
<path d="M439.547 86.4888C435.777 84.6266 432.526 82.805 429.792 81.0241C427.058 79.2433 425.137 77.8639 424.028 76.8859L424.797 75.3298L427.014 68.2299C427.398 69.1078 428.197 70.2338 429.411 71.6079C430.625 72.9821 432.314 74.4833 434.478 76.1117C436.659 77.7055 439.322 79.2797 442.469 80.8344C444.406 81.7911 445.952 82.4047 447.109 82.6752C448.283 82.9111 449.18 82.8809 449.8 82.5848C450.419 82.2886 450.891 81.812 451.216 81.155C451.626 80.325 451.665 79.5486 451.334 78.8258C451.02 78.0683 450.214 77.1752 448.915 76.1464C447.651 75.1347 445.791 73.8068 443.333 72.1626C440.392 70.1929 438.046 68.324 436.295 66.5556C434.544 64.7873 433.475 62.9899 433.087 61.1633C432.716 59.3022 433.077 57.265 434.17 55.0519C435.059 53.2538 436.303 51.9111 437.903 51.0237C439.503 50.1364 441.528 49.8249 443.979 50.0892C446.429 50.3535 449.366 51.3314 452.79 53.0227C456.386 54.7995 459.378 56.4929 461.766 58.103C464.154 59.713 465.747 60.9301 466.544 61.7543L465.776 63.3103L464.513 69.7848C463.87 68.9081 462.856 67.8263 461.47 66.5392C460.084 65.2521 458.396 63.9233 456.406 62.5529C454.433 61.1479 452.201 59.8303 449.711 58.6002C448.155 57.8314 446.877 57.3718 445.876 57.2213C444.891 57.0363 444.09 57.0918 443.47 57.388C442.902 57.6667 442.447 58.1519 442.106 58.8434C441.696 59.6734 441.674 60.5014 442.04 61.3276C442.458 62.1364 443.316 63.0551 444.615 64.0839C445.913 65.1126 447.722 66.3718 450.04 67.8615C453.604 70.1386 456.201 72.1961 457.832 74.034C459.462 75.8719 460.333 77.6358 460.444 79.3257C460.607 80.9981 460.236 82.7507 459.331 84.5834C458.545 86.174 457.559 87.4293 456.373 88.3492C455.205 89.2344 453.81 89.7499 452.189 89.8956C450.603 90.0584 448.748 89.8517 446.623 89.2753C444.534 88.716 442.175 87.7872 439.547 86.4888Z" fill="#050E38"/>
<path d="M472.331 105.101C472.549 105.259 472.926 105.199 473.462 104.919C473.997 104.64 474.626 104 475.349 103L488.906 84.2448C489.403 83.5571 489.619 83.0942 489.553 82.8562C489.487 82.6182 488.985 82.1603 488.048 81.4824L484.625 79.0082C482.812 77.6976 481.196 76.8388 479.777 76.4317C478.412 76.0159 477.433 75.8557 476.841 75.951L481.71 71.19L482.727 69.7833L511.797 90.7975L510.78 92.2041L507.786 98.3208C507.691 97.7284 507.216 96.838 506.362 95.6494C505.562 94.4522 504.255 93.1983 502.442 91.8878L499.066 89.4474C498.097 88.747 497.489 88.4027 497.243 88.4148C496.996 88.4269 496.624 88.7767 496.127 89.4644L482.569 108.219C481.846 109.219 481.436 110.017 481.339 110.613C481.241 111.209 481.302 111.586 481.52 111.744L472.331 105.101Z" fill="#050E38"/>
<path d="M511.148 138.581C508.424 135.796 506.627 133.075 505.757 130.42C504.887 127.765 504.861 125.2 505.68 122.728C506.526 120.228 508.107 117.845 510.424 115.58L522.089 104.174C522.972 103.311 523.498 102.608 523.668 102.064C523.892 101.521 523.91 101.153 523.721 100.96L531.487 108.903C531.271 108.737 530.889 108.732 530.341 108.89C529.821 109.075 529.12 109.599 528.237 110.462L516.655 121.787C514.89 123.513 513.767 125.096 513.288 126.536C512.808 127.976 512.82 129.313 513.324 130.546C513.829 131.779 514.647 132.975 515.78 134.133L516.225 134.588C517.115 135.498 517.993 136.203 518.86 136.704C519.754 137.232 520.665 137.501 521.592 137.512C522.546 137.55 523.572 137.275 524.67 136.687C525.822 136.1 527.074 135.146 528.425 133.825L540.008 122.499C540.89 121.636 541.416 120.933 541.586 120.39C541.81 119.847 541.828 119.479 541.639 119.286L549.405 127.228C549.189 127.062 548.793 127.071 548.218 127.255C547.698 127.441 546.997 127.965 546.114 128.827L534.49 140.193C532.174 142.458 529.743 143.972 527.198 144.734C524.707 145.497 522.145 145.414 519.509 144.484C516.901 143.582 514.249 141.753 511.552 138.995L511.148 138.581Z" fill="#050E38"/>
<path d="M531.402 159.756C531.554 159.979 531.929 160.05 532.528 159.969C533.126 159.889 533.935 159.501 534.955 158.806L557.907 143.172C558.927 142.478 559.568 141.877 559.831 141.372C560.125 140.845 560.212 140.459 560.092 140.214L570.319 155.228C572.229 158.033 573.565 160.577 574.326 162.859C575.087 165.14 575.38 167.181 575.206 168.98C575.053 170.811 574.561 172.452 573.73 173.905C572.931 175.336 571.912 176.614 570.671 177.738C569.453 178.895 568.142 179.951 566.739 180.907C565.464 181.775 564.065 182.565 562.543 183.275C561.073 183.996 559.5 184.461 557.823 184.67C556.199 184.89 554.491 184.746 552.699 184.24C550.961 183.744 549.154 182.735 547.278 181.213C545.423 179.723 543.54 177.575 541.629 174.77L531.402 159.756ZM543.712 166.421L545.048 168.382C546.915 171.123 548.636 173.171 550.212 174.524C551.819 175.856 553.505 176.481 555.269 176.399C557.033 176.318 559.095 175.473 561.454 173.867L562.315 173.28C564.801 171.587 566.395 169.988 567.097 168.483C567.831 166.957 567.824 165.234 567.078 163.316C566.331 161.398 564.981 159.004 563.026 156.135L561.691 154.175C561.061 153.25 560.618 152.736 560.36 152.632C560.156 152.537 559.719 152.718 559.049 153.174L543.844 163.531C543.143 164.009 542.783 164.371 542.764 164.617C542.766 164.895 543.083 165.497 543.712 166.421Z" fill="#050E38"/>
<path d="M556.899 199.848C557.021 200.089 557.358 200.199 557.91 200.178C558.513 200.175 559.383 199.885 560.518 199.309L585.284 186.745C586.384 186.187 587.114 185.665 587.474 185.18C587.851 184.73 587.978 184.384 587.856 184.143L592.908 194.101C592.785 193.86 592.423 193.741 591.819 193.745C591.249 193.731 590.38 194.021 589.211 194.614L564.496 207.152C563.396 207.71 562.666 208.232 562.306 208.717C561.947 209.202 561.828 209.565 561.95 209.806L556.899 199.848Z" fill="#050E38"/>
<path d="M572.367 236.392C570.16 230.135 570.054 225.081 572.048 221.228C574.092 217.399 577.806 214.534 583.189 212.635C586.644 211.416 589.82 210.971 592.717 211.298C595.663 211.65 598.265 212.879 600.521 214.987C602.827 217.118 604.718 220.275 606.194 224.458L606.791 226.149C608.241 230.26 608.742 233.825 608.294 236.846C607.86 239.903 606.599 242.475 604.513 244.56C602.426 246.646 599.656 248.298 596.2 249.517C590.817 251.416 586.128 251.516 582.134 249.817C578.176 248.105 575.12 244.193 572.964 238.083L572.367 236.392ZM578.616 234.801L578.828 235.401C579.61 237.62 580.616 239.31 581.843 240.472C583.084 241.67 584.627 242.332 586.471 242.459C588.351 242.573 590.619 242.161 593.275 241.224C595.857 240.313 597.802 239.218 599.109 237.939C600.466 236.683 601.233 235.206 601.411 233.507C601.638 231.832 601.367 229.903 600.597 227.721L600.385 227.121C599.589 224.866 598.547 223.127 597.257 221.905C596.003 220.671 594.466 219.966 592.645 219.79C590.838 219.651 588.661 220.03 586.114 220.928C583.459 221.865 581.442 222.986 580.061 224.291C578.731 225.619 577.958 227.139 577.744 228.851C577.542 230.599 577.833 232.582 578.616 234.801Z" fill="#050E38"/>
<path d="M637 315C637 485.541 495.862 624 321.5 624C147.138 624 6 485.541 6 315C6 144.459 147.138 6 321.5 6C495.862 6 637 144.459 637 315Z" stroke="#050E38" stroke-width="12"/>
<line x1="45" y1="391" x2="208" y2="391" stroke="#050E38" stroke-width="10"/>
<line x1="403" y1="391" x2="590" y2="391" stroke="#050E38" stroke-width="10"/>
<line x1="43" y1="294" x2="208" y2="294" stroke="#050E38" stroke-width="10"/>
<line x1="405" y1="294" x2="590" y2="294" stroke="#050E38" stroke-width="10"/>
</svg>
