<?xml version="1.0" encoding="UTF-8"?>
<svg width="700pt" height="700pt" version="1.1" viewBox="0 0 700 700" xmlns="http://www.w3.org/2000/svg" xmlns:xlink="http://www.w3.org/1999/xlink">
 <defs>
  <symbol id="v" overflow="visible">
   <path d="m6.1094-0.35938c-0.3125 0.15625-0.64062 0.27734-0.98438 0.35938s-0.69922 0.125-1.0625 0.125c-1.1172 0-1.9961-0.30469-2.6406-0.92188-0.64844-0.625-0.96875-1.4609-0.96875-2.5156 0-1.0703 0.32031-1.9141 0.96875-2.5312 0.64453-0.61328 1.5234-0.92188 2.6406-0.92188 0.36328 0 0.71875 0.042969 1.0625 0.125 0.34375 0.085937 0.67188 0.20312 0.98438 0.35938v1.375c-0.3125-0.20703-0.625-0.36328-0.9375-0.46875-0.3125-0.10156-0.63672-0.15625-0.96875-0.15625-0.61719 0-1.1016 0.19922-1.4531 0.59375-0.34375 0.38672-0.51562 0.92969-0.51562 1.625 0 0.67969 0.17188 1.2148 0.51562 1.6094 0.35156 0.39844 0.83594 0.59375 1.4531 0.59375 0.33203 0 0.65625-0.050781 0.96875-0.15625 0.3125-0.10156 0.625-0.25781 0.9375-0.46875z"/>
  </symbol>
  <symbol id="c" overflow="visible">
   <path d="m4.4688-3.625c-0.13672-0.070312-0.27734-0.125-0.42188-0.15625-0.13672-0.03125-0.27344-0.046875-0.40625-0.046875-0.40625 0-0.72656 0.13672-0.95312 0.40625-0.21875 0.26172-0.32812 0.63672-0.32812 1.125v2.2969h-1.5938v-4.9844h1.5938v0.8125c0.20703-0.32031 0.44141-0.55469 0.70312-0.70312 0.26953-0.15625 0.58594-0.23438 0.95312-0.23438 0.0625 0 0.125 0.007813 0.1875 0.015625 0.0625 0 0.14844 0.007812 0.26562 0.015625z"/>
  </symbol>
  <symbol id="a" overflow="visible">
   <path d="m5.75-2.5156v0.46875h-3.7344c0.039063 0.36719 0.17578 0.64062 0.40625 0.82812 0.22656 0.1875 0.55078 0.28125 0.96875 0.28125 0.34375 0 0.6875-0.046875 1.0312-0.14062 0.35156-0.10156 0.71875-0.25391 1.0938-0.45312v1.2344c-0.375 0.13672-0.75781 0.24219-1.1406 0.3125-0.375 0.070312-0.75 0.10938-1.125 0.10938-0.90625 0-1.6094-0.22656-2.1094-0.6875-0.5-0.45703-0.75-1.0977-0.75-1.9219 0-0.82031 0.24219-1.4609 0.73438-1.9219 0.48828-0.46875 1.1641-0.70312 2.0312-0.70312 0.78125 0 1.4062 0.24219 1.875 0.71875 0.47656 0.46875 0.71875 1.0938 0.71875 1.875zm-1.6406-0.51562c0-0.3125-0.089844-0.55469-0.26562-0.73438-0.17969-0.1875-0.40625-0.28125-0.6875-0.28125-0.3125 0-0.57031 0.089844-0.76562 0.26562-0.1875 0.16797-0.30859 0.41797-0.35938 0.75z"/>
  </symbol>
  <symbol id="f" overflow="visible">
   <path d="m3-2.25c-0.33594 0-0.58594 0.058594-0.75 0.17188-0.16797 0.11719-0.25 0.28125-0.25 0.5 0 0.19922 0.066406 0.35547 0.20312 0.46875 0.13281 0.11719 0.32031 0.17188 0.5625 0.17188 0.30078 0 0.55078-0.10156 0.75-0.3125 0.20703-0.21875 0.3125-0.48828 0.3125-0.8125v-0.1875zm2.4375-0.59375v2.8438h-1.6094v-0.73438c-0.21094 0.30469-0.44922 0.52344-0.71875 0.65625-0.27344 0.13281-0.59375 0.20312-0.96875 0.20312-0.52344 0-0.94531-0.14844-1.2656-0.45312-0.32422-0.30078-0.48438-0.69141-0.48438-1.1719 0-0.58203 0.19531-1.0078 0.59375-1.2812 0.40625-0.26953 1.0391-0.40625 1.9062-0.40625h0.9375v-0.125c0-0.25781-0.10156-0.44531-0.29688-0.5625-0.19922-0.11328-0.50781-0.17188-0.92188-0.17188-0.34375 0-0.66797 0.039063-0.96875 0.10938-0.29297 0.0625-0.5625 0.16406-0.8125 0.29688v-1.2188c0.34375-0.082031 0.6875-0.14453 1.0312-0.1875 0.34375-0.039063 0.6875-0.0625 1.0312-0.0625 0.89453 0 1.5391 0.17969 1.9375 0.53125 0.40625 0.35547 0.60938 0.93359 0.60938 1.7344z"/>
  </symbol>
  <symbol id="b" overflow="visible">
   <path d="m2.5156-6.4062v1.4219h1.6406v1.1406h-1.6406v2.1094c0 0.23047 0.039063 0.38672 0.125 0.46875 0.09375 0.085937 0.27344 0.125 0.54688 0.125h0.82812v1.1406h-1.375c-0.625 0-1.0742-0.12891-1.3438-0.39062-0.26172-0.25781-0.39062-0.70703-0.39062-1.3438v-2.1094h-0.78125v-1.1406h0.78125v-1.4219z"/>
  </symbol>
  <symbol id="m" overflow="visible">
   <path d="m4.1562-4.2656v-2.6719h1.6094v6.9375h-1.6094v-0.71875c-0.21875 0.29297-0.46484 0.50781-0.73438 0.64062-0.26172 0.13281-0.5625 0.20312-0.90625 0.20312-0.61719 0-1.1211-0.24219-1.5156-0.73438-0.39844-0.48828-0.59375-1.1133-0.59375-1.875 0-0.76953 0.19531-1.3984 0.59375-1.8906 0.39453-0.48828 0.89844-0.73438 1.5156-0.73438 0.34375 0 0.64453 0.070313 0.90625 0.20312 0.26953 0.13672 0.51562 0.35156 0.73438 0.64062zm-1.0469 3.2344c0.34375 0 0.60156-0.125 0.78125-0.375 0.17578-0.25 0.26562-0.60938 0.26562-1.0781 0-0.47656-0.089844-0.84375-0.26562-1.0938-0.17969-0.25-0.4375-0.375-0.78125-0.375-0.33594 0-0.59375 0.125-0.78125 0.375-0.17969 0.25-0.26562 0.61719-0.26562 1.0938 0 0.46875 0.085938 0.82812 0.26562 1.0781 0.1875 0.25 0.44531 0.375 0.78125 0.375z"/>
  </symbol>
  <symbol id="l" overflow="visible">
   <path d="m3.4219-1.0312c0.34375 0 0.60156-0.125 0.78125-0.375 0.17578-0.25 0.26562-0.60938 0.26562-1.0781 0-0.47656-0.089844-0.84375-0.26562-1.0938-0.17969-0.25-0.4375-0.375-0.78125-0.375s-0.60938 0.125-0.79688 0.375c-0.17969 0.25-0.26562 0.61719-0.26562 1.0938 0 0.46875 0.085937 0.82812 0.26562 1.0781 0.1875 0.25 0.45312 0.375 0.79688 0.375zm-1.0625-3.2344c0.21875-0.28906 0.46094-0.50391 0.73438-0.64062 0.26953-0.13281 0.57812-0.20312 0.92188-0.20312 0.61328 0 1.1172 0.24609 1.5156 0.73438 0.39453 0.49219 0.59375 1.1211 0.59375 1.8906 0 0.76172-0.19922 1.3867-0.59375 1.875-0.39844 0.49219-0.90234 0.73438-1.5156 0.73438-0.34375 0-0.65234-0.070312-0.92188-0.20312-0.27344-0.13281-0.51562-0.34766-0.73438-0.64062v0.71875h-1.5938v-6.9375h1.5938z"/>
  </symbol>
  <symbol id="e" overflow="visible">
   <path d="m0.10938-4.9844h1.5938l1.3438 3.375 1.1406-3.375h1.5938l-2.0938 5.4531c-0.21094 0.5625-0.45312 0.95312-0.73438 1.1719s-0.65625 0.32812-1.125 0.32812h-0.92188v-1.0469h0.5c0.26953 0 0.46875-0.046875 0.59375-0.14062 0.125-0.085938 0.22266-0.23438 0.29688-0.45312l0.03125-0.14062z"/>
  </symbol>
  <symbol id="k" overflow="visible">
   <path d="m4.875-1.2188h-2.6875l-0.42188 1.2188h-1.7188l2.4688-6.6562h2.0312l2.4688 6.6562h-1.7188zm-2.25-1.2344h1.8125l-0.90625-2.6406z"/>
  </symbol>
  <symbol id="j" overflow="visible">
   <path d="m0.76562-4.9844h1.5938v4.9844h-1.5938zm0-1.9531h1.5938v1.3125h-1.5938z"/>
  </symbol>
  <symbol id="i" overflow="visible">
   <path d="m4.0469-6.9375v1.0469h-0.875c-0.23047 0-0.39062 0.042969-0.48438 0.125-0.085938 0.085937-0.125 0.22656-0.125 0.42188v0.35938h1.3594v1.1406h-1.3594v3.8438h-1.5938v-3.8438h-0.79688v-1.1406h0.79688v-0.35938c0-0.53906 0.14844-0.94141 0.45312-1.2031 0.30078-0.25781 0.76953-0.39062 1.4062-0.39062z"/>
  </symbol>
  <symbol id="u" overflow="visible">
   <path d="m5.4688-6.4375v1.4062c-0.36719-0.16406-0.72656-0.28906-1.0781-0.375-0.34375-0.082031-0.67188-0.125-0.98438-0.125-0.40625 0-0.71094 0.058594-0.90625 0.17188-0.19922 0.11719-0.29688 0.29297-0.29688 0.53125 0 0.17969 0.066406 0.32031 0.20312 0.42188 0.13281 0.09375 0.375 0.17969 0.71875 0.25l0.73438 0.14062c0.73828 0.14844 1.2656 0.375 1.5781 0.6875 0.3125 0.30469 0.46875 0.73047 0.46875 1.2812 0 0.74219-0.21875 1.2891-0.65625 1.6406-0.4375 0.35547-1.1055 0.53125-2 0.53125-0.41797 0-0.83984-0.042969-1.2656-0.125-0.42969-0.070312-0.85156-0.1875-1.2656-0.34375v-1.4531c0.41406 0.23047 0.82031 0.40234 1.2188 0.51562 0.40625 0.11719 0.78906 0.17188 1.1562 0.17188 0.375 0 0.66016-0.0625 0.85938-0.1875 0.19531-0.125 0.29688-0.30078 0.29688-0.53125 0-0.20703-0.070312-0.36719-0.20312-0.48438-0.13672-0.11328-0.40625-0.21875-0.8125-0.3125l-0.65625-0.14062c-0.66797-0.14453-1.1562-0.375-1.4688-0.6875-0.30469-0.3125-0.45312-0.72656-0.45312-1.25 0-0.66406 0.21094-1.1758 0.64062-1.5312 0.42578-0.35156 1.0391-0.53125 1.8438-0.53125 0.36328 0 0.73828 0.027344 1.125 0.078125 0.38281 0.054688 0.78516 0.13672 1.2031 0.25z"/>
  </symbol>
  <symbol id="h" overflow="visible">
   <path d="m0.71875-1.9375v-3.0469h1.5938v0.5 1.0156 0.8125c0 0.40625 0.007812 0.69922 0.03125 0.875 0.019531 0.16797 0.054688 0.29297 0.10938 0.375 0.0625 0.10547 0.14453 0.1875 0.25 0.25 0.10156 0.054688 0.22266 0.078125 0.35938 0.078125 0.33203 0 0.59375-0.125 0.78125-0.375 0.19531-0.25781 0.29688-0.61719 0.29688-1.0781v-2.4531h1.5938v4.9844h-1.5938v-0.71875c-0.24219 0.29297-0.49609 0.50781-0.76562 0.64062-0.27344 0.13281-0.57031 0.20312-0.89062 0.20312-0.57422 0-1.0117-0.17578-1.3125-0.53125-0.30469-0.35156-0.45312-0.86328-0.45312-1.5312z"/>
  </symbol>
  <symbol id="t" overflow="visible">
   <path d="m4.1562-0.84375c-0.21875 0.29297-0.46484 0.50781-0.73438 0.64062-0.26172 0.13672-0.5625 0.20312-0.90625 0.20312-0.60547 0-1.1094-0.23828-1.5156-0.71875-0.39844-0.47656-0.59375-1.0859-0.59375-1.8281 0-0.75 0.19531-1.3633 0.59375-1.8438 0.40625-0.47656 0.91016-0.71875 1.5156-0.71875 0.34375 0 0.64453 0.074219 0.90625 0.21875 0.26953 0.13672 0.51562 0.35156 0.73438 0.64062v-0.73438h1.6094v4.4844c0 0.80078-0.25781 1.4102-0.76562 1.8281-0.5 0.42578-1.2344 0.64062-2.2031 0.64062-0.3125 0-0.61719-0.027344-0.90625-0.078125-0.28125-0.042969-0.57422-0.10938-0.875-0.20312v-1.25c0.28125 0.15625 0.55078 0.26953 0.8125 0.34375 0.26953 0.082031 0.53906 0.125 0.8125 0.125 0.53125 0 0.91406-0.11719 1.1562-0.34375 0.23828-0.21875 0.35938-0.57031 0.35938-1.0625zm-1.0469-3.1094c-0.33594 0-0.59375 0.125-0.78125 0.375-0.17969 0.24219-0.26562 0.58594-0.26562 1.0312 0 0.46094 0.085938 0.80859 0.26562 1.0469 0.17578 0.23047 0.4375 0.34375 0.78125 0.34375 0.33203 0 0.58594-0.11719 0.76562-0.35938 0.1875-0.25 0.28125-0.59375 0.28125-1.0312 0-0.44531-0.09375-0.78906-0.28125-1.0312-0.17969-0.25-0.43359-0.375-0.76562-0.375z"/>
  </symbol>
  <symbol id="g" overflow="visible">
   <path d="m5.7812-3.0312v3.0312h-1.6094v-2.3281c0-0.42578-0.011719-0.72266-0.03125-0.89062-0.011719-0.16406-0.042969-0.28516-0.09375-0.35938-0.0625-0.10156-0.14844-0.17969-0.25-0.23438-0.10547-0.0625-0.22656-0.09375-0.35938-0.09375-0.33594 0-0.60156 0.13281-0.79688 0.39062-0.1875 0.25-0.28125 0.60547-0.28125 1.0625v2.4531h-1.5938v-4.9844h1.5938v0.71875c0.23828-0.28906 0.49219-0.50391 0.76562-0.64062 0.26953-0.13281 0.56641-0.20312 0.89062-0.20312 0.58203 0 1.0195 0.17969 1.3125 0.53125 0.30078 0.35547 0.45312 0.87109 0.45312 1.5469z"/>
  </symbol>
  <symbol id="d" overflow="visible">
   <path d="m3.1406-3.9688c-0.35547 0-0.625 0.13281-0.8125 0.39062-0.1875 0.25-0.28125 0.61719-0.28125 1.0938 0 0.48047 0.09375 0.84375 0.28125 1.0938s0.45703 0.375 0.8125 0.375c0.34375 0 0.60938-0.125 0.79688-0.375s0.28125-0.61328 0.28125-1.0938c0-0.47656-0.09375-0.84375-0.28125-1.0938-0.1875-0.25781-0.45312-0.39062-0.79688-0.39062zm0-1.1406c0.85156 0 1.5195 0.23438 2 0.70312 0.48828 0.46094 0.73438 1.1016 0.73438 1.9219 0 0.8125-0.24609 1.4531-0.73438 1.9219-0.48047 0.46094-1.1484 0.6875-2 0.6875-0.86719 0-1.543-0.22656-2.0312-0.6875-0.48047-0.46875-0.71875-1.1094-0.71875-1.9219 0-0.82031 0.23828-1.4609 0.71875-1.9219 0.48828-0.46875 1.1641-0.70312 2.0312-0.70312z"/>
  </symbol>
  <symbol id="s" overflow="visible">
   <path d="m5.3906-4.1562c0.19531-0.3125 0.4375-0.54688 0.71875-0.70312 0.28125-0.16406 0.58594-0.25 0.92188-0.25 0.57031 0 1.0039 0.17969 1.2969 0.53125 0.30078 0.35547 0.45312 0.87109 0.45312 1.5469v3.0312h-1.5938v-2.6094-0.10938-0.1875c0-0.35156-0.054688-0.60938-0.15625-0.76562-0.10547-0.15625-0.27344-0.23438-0.5-0.23438-0.30469 0-0.53906 0.125-0.70312 0.375-0.16797 0.25-0.25 0.60938-0.25 1.0781v2.4531h-1.6094v-2.6094c0-0.55078-0.046875-0.90625-0.14062-1.0625s-0.26562-0.23438-0.51562-0.23438c-0.30469 0-0.53906 0.125-0.70312 0.375-0.16797 0.25-0.25 0.60938-0.25 1.0781v2.4531h-1.6094v-4.9844h1.6094v0.71875c0.19531-0.28125 0.42188-0.48828 0.67188-0.625 0.25781-0.14453 0.53906-0.21875 0.84375-0.21875 0.34375 0 0.64453 0.085937 0.90625 0.25 0.26953 0.16797 0.47266 0.40234 0.60938 0.70312z"/>
  </symbol>
  <symbol id="r" overflow="visible">
   <path d="m5.7812-3.0312v3.0312h-1.6094v-2.3125c0-0.4375-0.011719-0.73828-0.03125-0.90625-0.011719-0.16406-0.042969-0.28516-0.09375-0.35938-0.0625-0.10156-0.14844-0.17969-0.25-0.23438-0.10547-0.0625-0.22656-0.09375-0.35938-0.09375-0.33594 0-0.60156 0.13281-0.79688 0.39062-0.1875 0.25-0.28125 0.60547-0.28125 1.0625v2.4531h-1.5938v-6.9375h1.5938v2.6719c0.23828-0.28906 0.49219-0.50391 0.76562-0.64062 0.26953-0.13281 0.56641-0.20312 0.89062-0.20312 0.58203 0 1.0195 0.17969 1.3125 0.53125 0.30078 0.35547 0.45312 0.87109 0.45312 1.5469z"/>
  </symbol>
  <symbol id="q" overflow="visible">
   <path d="m0.84375-6.6562h1.9062l2.4219 4.5625v-4.5625h1.625v6.6562h-1.9062l-2.4219-4.5625v4.5625h-1.625z"/>
  </symbol>
  <symbol id="p" overflow="visible">
   <path d="m0.84375-6.6562h2.8438c0.84375 0 1.4883 0.1875 1.9375 0.5625 0.45703 0.375 0.6875 0.91406 0.6875 1.6094 0 0.69922-0.23047 1.2344-0.6875 1.6094-0.44922 0.375-1.0938 0.5625-1.9375 0.5625h-1.1406v2.3125h-1.7031zm1.7031 1.25v1.8594h0.95312c0.33203 0 0.58594-0.078125 0.76562-0.23438 0.1875-0.16406 0.28125-0.39844 0.28125-0.70312 0-0.28906-0.09375-0.51562-0.28125-0.67188-0.17969-0.16406-0.43359-0.25-0.76562-0.25z"/>
  </symbol>
  <symbol id="o" overflow="visible">
   <path d="m0.76562-4.9844h1.5938v4.8906c0 0.66406-0.16406 1.1758-0.48438 1.5312-0.3125 0.35156-0.77734 0.53125-1.3906 0.53125h-0.78125v-1.0469h0.26562c0.30078 0 0.50781-0.070313 0.625-0.20312 0.11328-0.13672 0.17188-0.40625 0.17188-0.8125zm0-1.9531h1.5938v1.3125h-1.5938z"/>
  </symbol>
  <symbol id="n" overflow="visible">
   <path d="m4.7969-4.8281v1.2969c-0.21875-0.14453-0.4375-0.25391-0.65625-0.32812-0.21875-0.070313-0.44531-0.10938-0.67188-0.10938-0.44922 0-0.79688 0.13281-1.0469 0.39062-0.25 0.26172-0.375 0.625-0.375 1.0938 0 0.46094 0.125 0.82031 0.375 1.0781 0.25 0.26172 0.59766 0.39062 1.0469 0.39062 0.25 0 0.48438-0.035156 0.70312-0.10938 0.22656-0.070312 0.4375-0.17969 0.625-0.32812v1.3125c-0.25 0.085938-0.50781 0.14453-0.76562 0.1875-0.25 0.050781-0.50781 0.078125-0.76562 0.078125-0.89844 0-1.6016-0.22656-2.1094-0.6875-0.51172-0.45703-0.76562-1.0977-0.76562-1.9219 0-0.82031 0.25391-1.4609 0.76562-1.9219 0.50781-0.46875 1.2109-0.70312 2.1094-0.70312 0.25781 0 0.51562 0.027344 0.76562 0.078125 0.25781 0.042969 0.51562 0.10938 0.76562 0.20312z"/>
  </symbol>
 </defs>
 <g>
  <path d="m239.64 244.43 65.668 65.668 155.05-155.05 47.426 47.426-202.48 202.48-113.09-113.09zm109.45-244.43c155.05 0 280.91 125.86 280.91 279.09 0 155.05-125.86 280.91-280.91 280.91-153.23 0-279.09-125.86-279.09-280.91 0-153.23 125.86-279.09 279.09-279.09zm0 69.316c-114.92 0-209.77 94.852-209.77 209.77 0 58.371 23.715 111.27 62.02 149.58 38.305 36.48 91.207 60.195 147.75 60.195 116.74 0 209.77-93.031 209.77-209.77 0-114.92-93.031-209.77-209.77-209.77z"/>
  <use x="70" y="587.363281" xlink:href="#v"/>
  <use x="76.695313" y="587.363281" xlink:href="#c"/>
  <use x="81.191406" y="587.363281" xlink:href="#a"/>
  <use x="87.378906" y="587.363281" xlink:href="#f"/>
  <use x="93.53125" y="587.363281" xlink:href="#b"/>
  <use x="97.890625" y="587.363281" xlink:href="#a"/>
  <use x="104.078125" y="587.363281" xlink:href="#m"/>
  <use x="113.78125" y="587.363281" xlink:href="#l"/>
  <use x="120.308594" y="587.363281" xlink:href="#e"/>
  <use x="129.429688" y="587.363281" xlink:href="#k"/>
  <use x="136.488281" y="587.363281" xlink:href="#c"/>
  <use x="140.988281" y="587.363281" xlink:href="#j"/>
  <use x="144.113281" y="587.363281" xlink:href="#a"/>
  <use x="150.300781" y="587.363281" xlink:href="#i"/>
  <use x="157.441406" y="587.363281" xlink:href="#u"/>
  <use x="164.011719" y="587.363281" xlink:href="#h"/>
  <use x="170.503906" y="587.363281" xlink:href="#t"/>
  <use x="177.03125" y="587.363281" xlink:href="#j"/>
  <use x="180.160156" y="587.363281" xlink:href="#e"/>
  <use x="186.105469" y="587.363281" xlink:href="#f"/>
  <use x="192.257812" y="587.363281" xlink:href="#g"/>
  <use x="198.75" y="587.363281" xlink:href="#b"/>
  <use x="203.113281" y="587.363281" xlink:href="#d"/>
  <use x="70" y="596.480469" xlink:href="#i"/>
  <use x="73.96875" y="596.480469" xlink:href="#c"/>
  <use x="78.464844" y="596.480469" xlink:href="#d"/>
  <use x="84.730469" y="596.480469" xlink:href="#s"/>
  <use x="97.410156" y="596.480469" xlink:href="#b"/>
  <use x="101.769531" y="596.480469" xlink:href="#r"/>
  <use x="108.261719" y="596.480469" xlink:href="#a"/>
  <use x="117.625" y="596.480469" xlink:href="#q"/>
  <use x="125.257812" y="596.480469" xlink:href="#d"/>
  <use x="131.523438" y="596.480469" xlink:href="#h"/>
  <use x="138.015625" y="596.480469" xlink:href="#g"/>
  <use x="147.683594" y="596.480469" xlink:href="#p"/>
  <use x="154.371094" y="596.480469" xlink:href="#c"/>
  <use x="158.867188" y="596.480469" xlink:href="#d"/>
  <use x="165.132812" y="596.480469" xlink:href="#o"/>
  <use x="168.257812" y="596.480469" xlink:href="#a"/>
  <use x="174.445312" y="596.480469" xlink:href="#n"/>
  <use x="179.851562" y="596.480469" xlink:href="#b"/>
 </g>
</svg>
